<svg width="4" height="2" viewBox="0 0 4 2" fill="none" xmlns="http://www.w3.org/2000/svg" xmlns:xlink="http://www.w3.org/1999/xlink">
<path d="M1.448,0.712C1.509,1.261 2.003,1.656 2.552,1.595C3.101,1.534 3.496,1.04 3.435,0.491L1.448,0.712ZM1.825,-0.511C1.273,-0.511 0.825,-0.063 0.825,0.489C0.825,1.042 1.273,1.489 1.825,1.489L1.825,-0.511ZM3.435,0.491C3.375,-0.05 2.981,-0.322 2.735,-0.422C2.519,-0.511 2.312,-0.523 2.21,-0.526C2.09,-0.53 1.977,-0.522 1.909,-0.518C1.805,-0.51 1.814,-0.511 1.825,-0.511L1.825,1.489C1.88,1.489 1.933,1.486 1.96,1.484C1.977,1.483 2.041,1.478 2.049,1.478C2.107,1.473 2.135,1.473 2.148,1.473C2.18,1.474 2.099,1.478 1.977,1.429C1.909,1.4 1.788,1.339 1.675,1.214C1.55,1.077 1.469,0.901 1.448,0.712L3.435,0.491Z" fill="#FFFFFF"/>
</svg>
