<svg width="36" height="36" viewBox="0 0 36 36" fill="none" xmlns="http://www.w3.org/2000/svg" xmlns:xlink="http://www.w3.org/1999/xlink">
<path d="M17,12.1C18.834,10.226 21.222,9 24,9C26.917,9 29.715,10.159 31.778,12.222C33.841,14.285 35,17.083 35,20L35,35L31,35L31,20C31,18.143 30.263,16.363 28.95,15.05C27.637,13.738 25.857,13 24,13C22.143,13 20.363,13.738 19.05,15.05C17.737,16.363 17,18.143 17,20L17,35L13,35L13,10L17,10L17,12.1ZM3,6C2.204,6 1.441,5.684 0.879,5.121C0.316,4.559 0,3.796 0,3C0,2.204 0.316,1.441 0.879,0.879C1.441,0.316 2.204,0 3,0C3.796,0 4.559,0.316 5.121,0.879C5.684,1.441 6,2.204 6,3C6,3.796 5.684,4.559 5.121,5.121C4.559,5.684 3.796,6 3,6ZM1,10L5,10L5,35L1,35L1,10Z" fill="#FFFFFF"/>
</svg>
