<svg width="36" height="36" viewBox="0 0 36 36" fill="none" xmlns="http://www.w3.org/2000/svg" xmlns:xlink="http://www.w3.org/1999/xlink">
<path d="M32.938,35.06C33.524,35.646 34.473,35.647 35.06,35.062C35.646,34.476 35.647,33.527 35.062,32.94L32.938,35.06ZM27.506,25.371C26.921,24.785 25.971,24.784 25.385,25.37C24.799,25.955 24.798,26.905 25.383,27.491L27.506,25.371ZM2,16.316L0.5,16.316L2,16.316ZM16.316,2L16.316,0.5L16.316,2ZM35.062,32.94L27.506,25.371L25.383,27.491L32.938,35.06L35.062,32.94ZM29.132,16.316C29.132,19.715 27.781,22.974 25.378,25.378L27.499,27.499C30.465,24.533 32.132,20.51 32.132,16.316L29.132,16.316ZM25.378,25.378C22.974,27.781 19.715,29.132 16.316,29.132L16.316,32.132C20.51,32.132 24.533,30.465 27.499,27.499L25.378,25.378ZM16.316,29.132C12.917,29.132 9.657,27.781 7.254,25.378L5.132,27.499C8.098,30.465 12.121,32.132 16.316,32.132L16.316,29.132ZM7.254,25.378C4.85,22.974 3.5,19.715 3.5,16.316L0.5,16.316C0.5,20.51 2.166,24.533 5.132,27.499L7.254,25.378ZM3.5,16.316C3.5,12.917 4.85,9.657 7.254,7.254L5.132,5.132C2.166,8.098 0.5,12.121 0.5,16.316L3.5,16.316ZM7.254,7.254C9.657,4.85 12.917,3.5 16.316,3.5L16.316,0.5C12.121,0.5 8.098,2.166 5.132,5.132L7.254,7.254ZM16.316,3.5C19.715,3.5 22.974,4.85 25.378,7.254L27.499,5.132C24.533,2.166 20.51,0.5 16.316,0.5L16.316,3.5ZM25.378,7.254C27.781,9.657 29.132,12.917 29.132,16.316L32.132,16.316C32.132,12.121 30.465,8.098 27.499,5.132L25.378,7.254Z" fill="#000000"/>
</svg>
