<svg width="28" height="20" viewBox="0 0 28 20" fill="none" xmlns="http://www.w3.org/2000/svg" xmlns:xlink="http://www.w3.org/1999/xlink">
<path d="M27.392,3.436C28.185,2.667 28.205,1.401 27.436,0.608C26.667,-0.185 25.401,-0.205 24.608,0.564L27.392,3.436ZM9.5,18L8.108,19.436C8.883,20.188 10.117,20.188 10.892,19.436L9.5,18ZM3.392,9.291C2.599,8.523 1.333,8.542 0.564,9.335C-0.205,10.128 -0.185,11.394 0.608,12.163L3.392,9.291ZM24.608,0.564L8.108,16.564L10.892,19.436L27.392,3.436L24.608,0.564ZM10.892,16.564L3.392,9.291L0.608,12.163L8.108,19.436L10.892,16.564Z" fill="#91C561"/>
</svg>
