<svg width="32" height="24" viewBox="0 0 32 24" fill="none" xmlns="http://www.w3.org/2000/svg" xmlns:xlink="http://www.w3.org/1999/xlink">
<path d="M29.625,10.981L31.318,9.917L29.625,10.981ZM29.969,11.681L28.02,12.126L29.969,11.681ZM29.625,13.019L27.932,11.954L29.625,13.019ZM29.969,12.319L28.02,11.874L29.969,12.319ZM2.375,10.981L4.068,12.046L2.375,10.981ZM2.031,11.681L3.98,12.126L2.031,11.681ZM2.375,13.019L0.682,14.083L2.375,13.019ZM2.031,12.319L3.98,11.874L2.031,12.319ZM4.068,12.046C4.809,10.868 6.271,8.812 8.35,7.069C10.425,5.329 12.991,4 16,4L16,0C11.749,0 8.303,1.888 5.78,4.003C3.262,6.115 1.542,8.549 0.682,9.917L4.068,12.046ZM16,4C19.009,4 21.575,5.329 23.65,7.069C25.729,8.812 27.191,10.868 27.932,12.046L31.318,9.917C30.458,8.549 28.738,6.115 26.22,4.003C23.697,1.888 20.251,0 16,0L16,4ZM27.932,11.954C27.191,13.132 25.729,15.188 23.65,16.931C21.575,18.671 19.009,20 16,20L16,24C20.251,24 23.697,22.112 26.22,19.997C28.738,17.885 30.458,15.451 31.318,14.083L27.932,11.954ZM16,20C12.991,20 10.425,18.671 8.35,16.931C6.271,15.188 4.809,13.132 4.068,11.954L0.682,14.083C1.542,15.451 3.262,17.885 5.78,19.997C8.303,22.112 11.749,24 16,24L16,20ZM27.932,12.046C27.956,12.085 27.977,12.118 27.996,12.148C28.014,12.178 28.029,12.202 28.041,12.222C28.066,12.263 28.074,12.277 28.073,12.276C28.071,12.272 28.06,12.25 28.047,12.216C28.034,12.181 28.025,12.149 28.02,12.126L31.919,11.236C31.777,10.611 31.48,10.174 31.318,9.917L27.932,12.046ZM31.318,14.083C31.48,13.826 31.777,13.389 31.919,12.764L28.02,11.874C28.025,11.851 28.034,11.819 28.047,11.784C28.06,11.75 28.071,11.728 28.073,11.724C28.074,11.723 28.066,11.737 28.041,11.778C28.029,11.798 28.014,11.822 27.996,11.852C27.977,11.882 27.956,11.915 27.932,11.954L31.318,14.083ZM28.02,12.126C28.006,12.065 28.002,12.027 28.001,12.018C28,12.01 28,12.006 28,12.004C28,12.002 28,12.001 28,12C28,11.999 28,11.998 28,11.996C28,11.994 28,11.99 28.001,11.982C28.002,11.973 28.006,11.935 28.02,11.874L31.919,12.764C32.027,12.293 32.027,11.707 31.919,11.236L28.02,12.126ZM0.682,9.917C0.52,10.174 0.223,10.612 0.081,11.236L3.98,12.126C3.975,12.149 3.966,12.181 3.953,12.216C3.94,12.25 3.929,12.272 3.927,12.276C3.926,12.277 3.934,12.263 3.959,12.222C3.971,12.202 3.986,12.178 4.004,12.148C4.023,12.118 4.044,12.085 4.068,12.046L0.682,9.917ZM4.068,11.954C4.044,11.915 4.023,11.882 4.004,11.852C3.986,11.822 3.971,11.798 3.959,11.778C3.934,11.737 3.926,11.723 3.927,11.724C3.929,11.728 3.94,11.75 3.953,11.784C3.966,11.819 3.975,11.851 3.98,11.874L0.081,12.764C0.223,13.389 0.52,13.826 0.682,14.083L4.068,11.954ZM0.081,11.236C-0.027,11.707 -0.027,12.293 0.081,12.764L3.98,11.874C3.994,11.935 3.998,11.973 3.999,11.982C4,11.99 4,11.994 4,11.996C4,11.998 4,11.999 4,12C4,12.001 4,12.002 4,12.004C4,12.006 4,12.01 3.999,12.018C3.998,12.027 3.994,12.065 3.98,12.126L0.081,11.236ZM18.267,12C18.267,13.271 17.243,14.286 16,14.286L16,18.286C19.469,18.286 22.266,15.463 22.266,12L18.267,12ZM16,14.286C14.757,14.286 13.733,13.271 13.733,12L9.733,12C9.733,15.463 12.531,18.286 16,18.286L16,14.286ZM13.733,12C13.733,10.729 14.757,9.714 16,9.714L16,5.714C12.531,5.714 9.733,8.537 9.733,12L13.733,12ZM16,9.714C17.243,9.714 18.267,10.729 18.267,12L22.266,12C22.266,8.537 19.469,5.714 16,5.714L16,9.714Z" fill="#121212"/>
</svg>
