<svg width="30" height="32" viewBox="0 0 30 32" fill="none" xmlns="http://www.w3.org/2000/svg" xmlns:xlink="http://www.w3.org/1999/xlink">
<path d="M16.842,2C16.842,0.895 15.947,0 14.842,0C13.738,0 12.842,0.895 12.842,2L16.842,2ZM12.842,5.421C12.842,6.526 13.738,7.421 14.842,7.421C15.947,7.421 16.842,6.526 16.842,5.421L12.842,5.421ZM16.842,23.553C16.842,22.448 15.947,21.553 14.842,21.553C13.738,21.553 12.842,22.448 12.842,23.553L16.842,23.553ZM12.842,29.026C12.842,30.131 13.738,31.026 14.842,31.026C15.947,31.026 16.842,30.131 16.842,29.026L12.842,29.026ZM6.289,17.342C7.394,17.342 8.289,16.447 8.289,15.342C8.289,14.238 7.394,13.342 6.289,13.342L6.289,17.342ZM1.5,13.342C0.395,13.342 -0.5,14.238 -0.5,15.342C-0.5,16.447 0.395,17.342 1.5,17.342L1.5,13.342ZM27.5,17.342C28.605,17.342 29.5,16.447 29.5,15.342C29.5,14.238 28.605,13.342 27.5,13.342L27.5,17.342ZM25.447,13.342C24.343,13.342 23.447,14.238 23.447,15.342C23.447,16.447 24.343,17.342 25.447,17.342L25.447,13.342ZM22.264,25.592C23.045,26.373 24.311,26.373 25.092,25.592C25.873,24.811 25.873,23.545 25.092,22.764L22.264,25.592ZM24.125,21.796C23.344,21.015 22.077,21.015 21.296,21.796C20.515,22.577 20.515,23.844 21.296,24.625L24.125,21.796ZM25.376,7.746C26.157,6.965 26.157,5.699 25.376,4.918C24.595,4.137 23.328,4.137 22.547,4.918L25.376,7.746ZM20.612,6.853C19.831,7.634 19.831,8.901 20.612,9.682C21.393,10.463 22.659,10.463 23.441,9.682L20.612,6.853ZM3.742,23.614C2.961,24.395 2.961,25.662 3.742,26.443C4.523,27.224 5.789,27.224 6.57,26.443L3.742,23.614ZM10.441,22.572C11.222,21.791 11.222,20.525 10.441,19.744C9.659,18.963 8.393,18.963 7.612,19.744L10.441,22.572ZM6.853,4.635C6.072,3.853 4.806,3.853 4.025,4.635C3.244,5.416 3.244,6.682 4.025,7.463L6.853,4.635ZM6.928,10.366C7.709,11.147 8.975,11.147 9.756,10.366C10.537,9.585 10.537,8.318 9.756,7.537L6.928,10.366ZM12.842,2L12.842,5.421L16.842,5.421L16.842,2L12.842,2ZM12.842,23.553L12.842,29.026L16.842,29.026L16.842,23.553L12.842,23.553ZM6.289,13.342L1.5,13.342L1.5,17.342L6.289,17.342L6.289,13.342ZM27.5,13.342L25.447,13.342L25.447,17.342L27.5,17.342L27.5,13.342ZM25.092,22.764L24.125,21.796L21.296,24.625L22.264,25.592L25.092,22.764ZM22.547,4.918L20.612,6.853L23.441,9.682L25.376,7.746L22.547,4.918ZM6.57,26.443L10.441,22.572L7.612,19.744L3.742,23.614L6.57,26.443ZM4.025,7.463L6.928,10.366L9.756,7.537L6.853,4.635L4.025,7.463Z" fill="#D6A243"/>
</svg>
