<svg width="32" height="40" viewBox="0 0 32 40" fill="none" xmlns="http://www.w3.org/2000/svg" xmlns:xlink="http://www.w3.org/1999/xlink">
<path d="M21.5,3.458C21.5,2.354 20.605,1.458 19.5,1.458C18.395,1.458 17.5,2.354 17.5,3.458L21.5,3.458ZM29.528,15.2C30.633,15.2 31.528,14.305 31.528,13.2C31.528,12.096 30.633,11.2 29.528,11.2L29.528,15.2ZM19.691,12.272L21.462,11.343L21.462,11.343L19.691,12.272ZM20.456,13.015L21.343,11.222L21.343,11.222L20.456,13.015ZM19.5,3L20.894,1.565C20.52,1.203 20.02,1 19.5,1L19.5,3ZM30,13.2L32,13.2C32,12.66 31.781,12.142 31.394,11.765L30,13.2ZM4.867,36.444L3.979,38.237L4.867,36.444ZM2.572,34.215L0.801,35.144L2.572,34.215ZM27.133,36.444L28.021,38.237L27.133,36.444ZM29.428,34.215L31.199,35.144L29.428,34.215ZM2.572,5.785L0.801,4.856L2.572,5.785ZM4.867,3.556L3.979,1.763L4.867,3.556ZM12.144,23.665C11.351,22.896 10.085,22.914 9.315,23.706C8.546,24.499 8.564,25.765 9.356,26.535L12.144,23.665ZM16,30.2L14.606,31.635C15.383,32.388 16.617,32.388 17.394,31.635L16,30.2ZM22.644,26.535C23.436,25.765 23.454,24.499 22.685,23.706C21.915,22.914 20.649,22.896 19.856,23.665L22.644,26.535ZM18,20C18,18.895 17.105,18 16,18C14.895,18 14,18.895 14,20L18,20ZM17.5,3.458L17.5,10.48L21.5,10.48L21.5,3.458L17.5,3.458ZM22.3,15.2L29.528,15.2L29.528,11.2L22.3,11.2L22.3,15.2ZM17.5,10.48C17.5,10.922 17.498,11.378 17.531,11.764C17.566,12.176 17.649,12.685 17.92,13.201L21.462,11.343C21.542,11.495 21.53,11.584 21.517,11.429C21.51,11.352 21.505,11.243 21.503,11.078C21.5,10.914 21.5,10.723 21.5,10.48L17.5,10.48ZM22.3,11.2C21.778,11.2 21.503,11.199 21.309,11.183C21.136,11.17 21.206,11.155 21.343,11.222L19.568,14.807C20.079,15.06 20.581,15.138 20.992,15.171C21.382,15.202 21.842,15.2 22.3,15.2L22.3,11.2ZM17.92,13.201C18.287,13.902 18.868,14.46 19.568,14.807L21.343,11.222C21.385,11.243 21.43,11.282 21.462,11.343L17.92,13.201ZM21.6,35L10.4,35L10.4,39L21.6,39L21.6,35ZM4,28.84L4,11.16L0,11.16L0,28.84L4,28.84ZM10.4,5L19.5,5L19.5,1L10.4,1L10.4,5ZM28,13.2L28,28.84L32,28.84L32,13.2L28,13.2ZM18.106,4.435L28.606,14.635L31.394,11.765L20.894,1.565L18.106,4.435ZM10.4,35C8.898,35 7.888,34.999 7.11,34.937C6.354,34.877 5.992,34.769 5.754,34.652L3.979,38.237C4.865,38.675 5.799,38.845 6.794,38.924C7.767,39.001 8.962,39 10.4,39L10.4,35ZM0,28.84C0,30.234 -0.002,31.404 0.079,32.357C0.161,33.336 0.34,34.265 0.801,35.144L4.343,33.286C4.232,33.075 4.125,32.744 4.065,32.022C4.002,31.275 4,30.302 4,28.84L0,28.84ZM5.754,34.652C5.137,34.347 4.647,33.865 4.343,33.286L0.801,35.144C1.504,36.485 2.62,37.564 3.979,38.237L5.754,34.652ZM21.6,39C23.038,39 24.233,39.001 25.206,38.924C26.201,38.845 27.135,38.675 28.021,38.237L26.246,34.652C26.008,34.769 25.646,34.877 24.89,34.937C24.112,34.999 23.102,35 21.6,35L21.6,39ZM28,28.84C28,30.302 27.998,31.275 27.936,32.022C27.875,32.744 27.768,33.075 27.657,33.286L31.199,35.144C31.66,34.265 31.839,33.336 31.921,32.357C32.002,31.404 32,30.234 32,28.84L28,28.84ZM28.021,38.237C29.38,37.564 30.496,36.485 31.199,35.144L27.657,33.286C27.353,33.865 26.863,34.347 26.246,34.652L28.021,38.237ZM4,11.16C4,9.698 4.002,8.725 4.065,7.978C4.125,7.256 4.232,6.925 4.343,6.714L0.801,4.856C0.34,5.735 0.161,6.664 0.079,7.643C-0.002,8.596 0,9.766 0,11.16L4,11.16ZM10.4,1C8.962,1 7.767,0.999 6.794,1.076C5.799,1.155 4.865,1.325 3.979,1.763L5.754,5.348C5.992,5.231 6.354,5.123 7.11,5.063C7.888,5.001 8.898,5 10.4,5L10.4,1ZM4.343,6.714C4.647,6.135 5.137,5.653 5.754,5.348L3.979,1.763C2.62,2.436 1.504,3.515 0.801,4.856L4.343,6.714ZM9.356,26.535L14.606,31.635L17.394,28.765L12.144,23.665L9.356,26.535ZM17.394,31.635L22.644,26.535L19.856,23.665L14.606,28.765L17.394,31.635ZM14,20L14,30.2L18,30.2L18,20L14,20Z" fill="#FFFFFF"/>
</svg>
