<svg width="4" height="4" viewBox="0 0 4 4" fill="none" xmlns="http://www.w3.org/2000/svg" xmlns:xlink="http://www.w3.org/1999/xlink">
<path d="M2.051,1.479C2.598,1.401 2.978,0.895 2.899,0.348C2.821,-0.199 2.315,-0.579 1.768,-0.501L2.051,1.479ZM1.29,1.831L2.138,2.361L2.138,2.361L1.29,1.831ZM0.234,1.562C-0.225,1.868 -0.349,2.489 -0.043,2.949C0.263,3.408 0.884,3.533 1.344,3.226L0.234,1.562ZM1.768,-0.501C1.399,-0.448 1.171,-0.227 1.077,-0.123C0.969,-0.004 0.896,0.122 0.849,0.21C0.754,0.39 0.678,0.594 0.623,0.75C0.577,0.88 0.499,1.117 0.472,1.197C0.417,1.358 0.409,1.354 0.442,1.301L2.138,2.361C2.204,2.255 2.251,2.146 2.278,2.079C2.309,2.002 2.338,1.921 2.363,1.848C2.388,1.774 2.415,1.695 2.438,1.623C2.463,1.549 2.487,1.479 2.51,1.412C2.561,1.268 2.596,1.185 2.615,1.148C2.626,1.128 2.61,1.163 2.562,1.217C2.527,1.256 2.359,1.435 2.051,1.479L1.768,-0.501ZM0.442,1.301C0.322,1.493 0.272,1.537 0.234,1.562L1.344,3.226C1.744,2.959 1.977,2.618 2.138,2.361L0.442,1.301Z" fill="#FFFFFF"/>
</svg>
