<svg width="44" height="40" viewBox="0 0 44 40" fill="none" xmlns="http://www.w3.org/2000/svg" xmlns:xlink="http://www.w3.org/1999/xlink">
<path d="M20.976,37.38L20.19,38.658L20.196,38.661L20.976,37.38ZM23.024,37.38L23.804,38.661L23.81,38.658L23.024,37.38ZM22,8L20.798,8.897C21.081,9.277 21.527,9.5 22,9.5C22.473,9.5 22.919,9.277 23.202,8.897L22,8ZM12,0.5C5.664,0.5 0.5,5.589 0.5,11.9L3.5,11.9C3.5,7.275 7.292,3.5 12,3.5L12,0.5ZM0.5,11.9C0.5,14.324 0.986,18.314 3.729,23.073C6.467,27.823 11.407,33.258 20.19,38.658L21.762,36.102C13.319,30.912 8.771,25.814 6.328,21.575C3.889,17.345 3.5,13.89 3.5,11.9L0.5,11.9ZM20.196,38.661C20.74,38.992 21.364,39.167 22,39.167L22,36.167C21.914,36.167 21.829,36.143 21.756,36.099L20.196,38.661ZM22,39.167C22.636,39.167 23.26,38.992 23.804,38.661L22.244,36.099C22.171,36.143 22.086,36.167 22,36.167L22,39.167ZM23.81,38.658C32.593,33.258 37.533,27.823 40.271,23.073C43.014,18.314 43.5,14.324 43.5,11.9L40.5,11.9C40.5,13.89 40.111,17.345 37.672,21.575C35.229,25.814 30.681,30.912 22.238,36.102L23.81,38.658ZM43.5,11.9C43.5,5.589 38.336,0.5 32,0.5L32,3.5C36.708,3.5 40.5,7.275 40.5,11.9L43.5,11.9ZM32,0.5C28.717,0.5 25.878,2.265 23.972,3.845C22.998,4.653 22.213,5.457 21.671,6.059C21.399,6.361 21.186,6.615 21.039,6.797C20.965,6.887 20.908,6.96 20.867,7.012C20.847,7.038 20.831,7.059 20.819,7.074C20.814,7.082 20.809,7.088 20.805,7.093C20.804,7.095 20.802,7.097 20.801,7.099C20.8,7.1 20.8,7.101 20.799,7.101C20.799,7.101 20.799,7.102 20.798,7.102C20.798,7.102 20.798,7.103 22,8C23.202,8.897 23.202,8.898 23.202,8.898C23.202,8.898 23.201,8.898 23.201,8.898C23.201,8.899 23.201,8.899 23.201,8.899C23.201,8.899 23.201,8.899 23.201,8.898C23.202,8.897 23.204,8.895 23.207,8.891C23.212,8.884 23.222,8.871 23.236,8.853C23.264,8.817 23.308,8.761 23.368,8.688C23.487,8.541 23.667,8.326 23.901,8.066C24.371,7.543 25.051,6.847 25.886,6.155C27.6,4.735 29.761,3.5 32,3.5L32,0.5ZM22,8C23.202,7.103 23.202,7.102 23.202,7.102C23.201,7.102 23.201,7.101 23.201,7.101C23.2,7.101 23.2,7.1 23.199,7.099C23.198,7.097 23.196,7.095 23.195,7.093C23.191,7.088 23.186,7.082 23.181,7.074C23.169,7.059 23.153,7.038 23.133,7.012C23.092,6.96 23.035,6.887 22.961,6.797C22.814,6.615 22.601,6.361 22.329,6.059C21.787,5.457 21.002,4.653 20.028,3.845C18.122,2.265 15.283,0.5 12,0.5L12,3.5C14.239,3.5 16.4,4.735 18.114,6.155C18.949,6.847 19.629,7.543 20.099,8.066C20.333,8.326 20.513,8.541 20.632,8.688C20.692,8.761 20.736,8.817 20.764,8.853C20.778,8.871 20.788,8.884 20.793,8.891C20.796,8.895 20.798,8.897 20.799,8.898C20.799,8.899 20.799,8.899 20.799,8.899C20.799,8.899 20.799,8.899 20.799,8.898C20.799,8.898 20.798,8.898 20.798,8.898C20.798,8.898 20.798,8.897 22,8Z" fill="#000000"/>
</svg>
