<svg width="44" height="40" viewBox="0 0 44 40" fill="none" xmlns="http://www.w3.org/2000/svg" xmlns:xlink="http://www.w3.org/1999/xlink">
<path d="M17.824,21.5C18.652,21.5 19.324,20.828 19.324,20C19.324,19.172 18.652,18.5 17.824,18.5L17.824,21.5ZM6,20L4.545,20.366C4.713,21.032 5.312,21.5 6,21.5L6,20ZM2.046,4.27L3.501,3.904C3.498,3.893 3.495,3.881 3.491,3.87L2.046,4.27ZM2,3.99L0.501,4.036C0.501,4.048 0.502,4.061 0.502,4.073L2,3.99ZM4.92,2.208L5.569,0.856L5.569,0.856L4.92,2.208ZM42,20L42.649,21.352C43.169,21.103 43.5,20.577 43.5,20C43.5,19.423 43.169,18.897 42.649,18.648L42,20ZM4.92,37.792L4.271,36.44L4.27,36.44L4.92,37.792ZM2,36.058L0.501,36.01C0.5,36.023 0.5,36.036 0.5,36.05L2,36.058ZM2.066,35.686L3.49,36.157C3.494,36.145 3.498,36.133 3.502,36.121L2.066,35.686ZM6.436,26.435C6.676,25.642 6.228,24.805 5.435,24.564C4.642,24.324 3.804,24.772 3.564,25.565L6.436,26.435ZM17.824,18.5L6,18.5L6,21.5L17.824,21.5L17.824,18.5ZM7.455,19.634L3.501,3.904L0.591,4.636L4.545,20.366L7.455,19.634ZM3.491,3.87C3.495,3.882 3.497,3.894 3.498,3.907L0.502,4.073C0.513,4.275 0.546,4.475 0.6,4.67L3.491,3.87ZM3.499,3.944C3.495,3.821 3.554,3.687 3.715,3.587C3.875,3.489 4.076,3.467 4.271,3.56L5.569,0.856C3.263,-0.25 0.42,1.378 0.501,4.036L3.499,3.944ZM4.271,3.56L41.351,21.352L42.649,18.648L5.569,0.856L4.271,3.56ZM41.351,18.648L4.271,36.44L5.569,39.144L42.649,21.352L41.351,18.648ZM4.27,36.44C4.077,36.533 3.88,36.512 3.721,36.417C3.559,36.319 3.499,36.186 3.5,36.066L0.5,36.05C0.485,38.655 3.285,40.243 5.57,39.144L4.27,36.44ZM3.499,36.106C3.499,36.123 3.496,36.14 3.49,36.157L0.642,35.215C0.557,35.472 0.509,35.74 0.501,36.01L3.499,36.106ZM3.502,36.121L6.436,26.435L3.564,25.565L0.63,35.251L3.502,36.121Z" fill="#FAFAFA"/>
</svg>
