<svg width="4" height="2" viewBox="0 0 4 2" fill="none" xmlns="http://www.w3.org/2000/svg" xmlns:xlink="http://www.w3.org/1999/xlink">
<path d="M1.447,0.712C1.508,1.261 2.002,1.656 2.551,1.595C3.1,1.534 3.495,1.04 3.434,0.491L1.447,0.712ZM1.824,-0.511C1.272,-0.511 0.824,-0.063 0.824,0.489C0.824,1.042 1.272,1.489 1.824,1.489L1.824,-0.511ZM3.434,0.491C3.374,-0.05 2.98,-0.322 2.734,-0.422C2.518,-0.511 2.311,-0.523 2.209,-0.526C2.089,-0.53 1.976,-0.522 1.908,-0.518C1.804,-0.51 1.813,-0.511 1.824,-0.511L1.824,1.489C1.879,1.489 1.932,1.486 1.959,1.484C1.976,1.483 2.04,1.478 2.048,1.478C2.106,1.473 2.134,1.473 2.147,1.473C2.179,1.474 2.098,1.478 1.977,1.429C1.908,1.4 1.787,1.339 1.674,1.214C1.549,1.077 1.468,0.901 1.447,0.712L3.434,0.491Z" fill="#FFFFFF"/>
</svg>
