<svg width="40" height="40" viewBox="0 0 40 40" fill="none" xmlns="http://www.w3.org/2000/svg" xmlns:xlink="http://www.w3.org/1999/xlink">
<path d="M10,2L10,0.5L10,2ZM2,10L0.5,10L2,10ZM2,30L0.5,30L2,30ZM30,0.5L10,0.5L10,3.5L30,3.5L30,0.5ZM10,0.5C7.48,0.5 5.064,1.501 3.282,3.282L5.404,5.404C6.623,4.185 8.276,3.5 10,3.5L10,0.5ZM3.282,3.282C1.501,5.064 0.5,7.48 0.5,10L3.5,10C3.5,8.276 4.185,6.623 5.404,5.404L3.282,3.282ZM0.5,10L0.5,30L3.5,30L3.5,10L0.5,10ZM0.5,30C0.5,32.52 1.501,34.936 3.282,36.718L5.404,34.596C4.185,33.377 3.5,31.724 3.5,30L0.5,30ZM3.282,36.718C5.064,38.499 7.48,39.5 10,39.5L10,36.5C8.276,36.5 6.623,35.815 5.404,34.596L3.282,36.718ZM10,39.5L30,39.5L30,36.5L10,36.5L10,39.5ZM30,39.5C32.52,39.5 34.936,38.499 36.718,36.718L34.596,34.596C33.377,35.815 31.724,36.5 30,36.5L30,39.5ZM36.718,36.718C38.499,34.936 39.5,32.52 39.5,30L36.5,30C36.5,31.724 35.815,33.377 34.596,34.596L36.718,36.718ZM39.5,30L39.5,10L36.5,10L36.5,30L39.5,30ZM39.5,10C39.5,7.48 38.499,5.064 36.718,3.282L34.596,5.404C35.815,6.623 36.5,8.276 36.5,10L39.5,10ZM36.718,3.282C34.936,1.501 32.52,0.5 30,0.5L30,3.5C31.724,3.5 33.377,4.185 34.596,5.404L36.718,3.282Z" fill="#FFFFFF"/>
<path d="M28,20L29.5,20L28,20ZM20,12L20,10.5L20,12ZM12,20L10.5,20L12,20ZM20,29.5C22.52,29.5 24.936,28.499 26.718,26.718L24.596,24.596C23.377,25.815 21.724,26.5 20,26.5L20,29.5ZM26.718,26.718C28.499,24.936 29.5,22.52 29.5,20L26.5,20C26.5,21.724 25.815,23.377 24.596,24.596L26.718,26.718ZM29.5,20C29.5,17.48 28.499,15.064 26.718,13.282L24.596,15.404C25.815,16.623 26.5,18.276 26.5,20L29.5,20ZM26.718,13.282C24.936,11.501 22.52,10.5 20,10.5L20,13.5C21.724,13.5 23.377,14.185 24.596,15.404L26.718,13.282ZM20,10.5C17.48,10.5 15.064,11.501 13.282,13.282L15.404,15.404C16.623,14.185 18.276,13.5 20,13.5L20,10.5ZM13.282,13.282C11.501,15.064 10.5,17.48 10.5,20L13.5,20C13.5,18.276 14.185,16.623 15.404,15.404L13.282,13.282ZM10.5,20C10.5,22.52 11.501,24.936 13.282,26.718L15.404,24.596C14.185,23.377 13.5,21.724 13.5,20L10.5,20ZM13.282,26.718C15.064,28.499 17.48,29.5 20,29.5L20,26.5C18.276,26.5 16.623,25.815 15.404,24.596L13.282,26.718Z" fill="#FFFFFF"/>
<path d="M31,11C31.53,11 32.039,10.789 32.414,10.414C32.789,10.039 33,9.53 33,9C33,8.47 32.789,7.961 32.414,7.586C32.039,7.211 31.53,7 31,7C30.47,7 29.961,7.211 29.586,7.586C29.211,7.961 29,8.47 29,9C29,9.53 29.211,10.039 29.586,10.414C29.961,10.789 30.47,11 31,11Z" fill="#FFFFFF"/>
</svg>
