<svg width="48" height="48" viewBox="0 0 48 48" fill="none" xmlns="http://www.w3.org/2000/svg" xmlns:xlink="http://www.w3.org/1999/xlink">
<path d="M10,8L38,8L38,4L10,4L10,8ZM38,8C39.105,8 40,8.895 40,10L44,10C44,6.686 41.314,4 38,4L38,8ZM40,10L40,38L44,38L44,10L40,10ZM40,38C40,39.105 39.105,40 38,40L38,44C41.314,44 44,41.314 44,38L40,38ZM38,40L10,40L10,44L38,44L38,40ZM10,40C8.895,40 8,39.105 8,38L4,38C4,41.314 6.686,44 10,44L10,40ZM8,38L8,10L4,10L4,38L8,38ZM8,10C8,8.895 8.895,8 10,8L10,4C6.686,4 4,6.686 4,10L8,10Z" fill="#B34649"/>
<line x1="22" y1="16" x2="22" y2="32" stroke="#B34649" stroke-width="2" stroke-miterlimit="3.999327" stroke-linecap="round" stroke-linejoin="round"/>
<line x1="16" y1="22" x2="32" y2="22" stroke="#B34649" stroke-width="2" stroke-miterlimit="3.999327" stroke-linecap="round" stroke-linejoin="round"/>
</svg>
