<svg width="15" height="15" viewBox="0 0 15 15" fill="none" xmlns="http://www.w3.org/2000/svg" xmlns:xlink="http://www.w3.org/1999/xlink">
<mask id="mask_0_i_19_2384;667_175" style="mask-type:alpha" maskUnits="userSpaceOnUse" x="20.592773" y="2.001038" width="12.406537" height="11.84761">
<path d="M44.604,10.345L37.165,9.264L33.84,2.523C33.749,2.338 33.6,2.189 33.415,2.098C32.952,1.869 32.39,2.06 32.159,2.523L28.833,9.264L21.395,10.345C21.19,10.374 21.002,10.471 20.859,10.617C20.685,10.796 20.59,11.036 20.593,11.284C20.596,11.533 20.698,11.771 20.876,11.944L26.258,17.191L24.987,24.601C24.957,24.773 24.976,24.95 25.042,25.112C25.108,25.274 25.217,25.415 25.359,25.518C25.5,25.62 25.668,25.681 25.842,25.694C26.017,25.706 26.191,25.67 26.346,25.588L32.999,22.09L39.653,25.588C39.834,25.685 40.045,25.717 40.247,25.682C40.757,25.594 41.1,25.11 41.012,24.601L39.741,17.191L45.122,11.944C45.269,11.801 45.366,11.613 45.395,11.408C45.474,10.896 45.117,10.421 44.604,10.345Z" fill="#F4CD0C"/>
</mask>
<path d="M44.604,10.345L37.165,9.264L33.84,2.523C33.749,2.338 33.6,2.189 33.415,2.098C32.952,1.869 32.39,2.06 32.159,2.523L28.833,9.264L21.395,10.345C21.19,10.374 21.002,10.471 20.859,10.617C20.685,10.796 20.59,11.036 20.593,11.284C20.596,11.533 20.698,11.771 20.876,11.944L26.258,17.191L24.987,24.601C24.957,24.773 24.976,24.95 25.042,25.112C25.108,25.274 25.217,25.415 25.359,25.518C25.5,25.62 25.668,25.681 25.842,25.694C26.017,25.706 26.191,25.67 26.346,25.588L32.999,22.09L39.653,25.588C39.834,25.685 40.045,25.717 40.247,25.682C40.757,25.594 41.1,25.11 41.012,24.601L39.741,17.191L45.122,11.944C45.269,11.801 45.366,11.613 45.395,11.408C45.474,10.896 45.117,10.421 44.604,10.345L44.604,10.345Z" fill="#D8D8DD"/>
<g mask="url(#mask_0_i_19_2384;667_175)">
<rect  x="0" y="0" width="15" height="15" transform="rotate(0 0 0)" fill="#F4B30C"/>
</g>
</svg>
