<svg width="42" height="34" viewBox="0 0 42 34" fill="none" xmlns="http://www.w3.org/2000/svg" xmlns:xlink="http://www.w3.org/1999/xlink">
<path d="M27.81,4.003C26.29,4.002 24.831,4.599 23.746,5.664C22.661,6.729 22.038,8.177 22.01,9.697L21.954,12.847C21.951,13.016 21.912,13.182 21.84,13.335C21.767,13.488 21.664,13.624 21.535,13.734C21.407,13.844 21.257,13.926 21.094,13.974C20.932,14.022 20.762,14.035 20.594,14.013L17.472,13.589C13.364,13.029 9.428,11.137 5.652,7.991C4.456,14.611 6.792,19.197 12.418,22.735L15.912,24.931C16.078,25.035 16.216,25.178 16.314,25.348C16.411,25.518 16.466,25.71 16.473,25.906C16.479,26.101 16.438,26.296 16.352,26.472C16.266,26.649 16.138,26.801 15.98,26.917L12.796,29.243C14.69,29.361 16.488,29.277 17.98,28.981C27.416,27.097 33.69,19.997 33.69,8.285C33.69,7.329 31.666,4.003 27.81,4.003L27.81,4.003ZM18.01,9.623C18.045,7.695 18.648,5.82 19.743,4.233C20.838,2.646 22.378,1.418 24.168,0.701C25.958,-0.015 27.92,-0.187 29.807,0.206C31.695,0.599 33.425,1.541 34.78,2.913C36.202,2.903 37.412,3.263 40.118,1.623C39.448,4.903 39.118,6.327 37.69,8.285C37.69,23.569 28.296,31.001 18.764,32.903C12.228,34.207 2.724,32.065 0,29.221C1.388,29.113 7.028,28.507 10.288,26.121C7.53,24.303 -3.448,17.843 3.766,0.475C7.152,4.429 10.586,7.121 14.066,8.549C16.382,9.499 16.95,9.479 18.012,9.625L18.01,9.623Z" fill="#FFFFFF" stroke="#000000" stroke-width="0.2" stroke-miterlimit="3.999327"/>
</svg>
