<svg width="4" height="4" viewBox="0 0 4 4" fill="none" xmlns="http://www.w3.org/2000/svg" xmlns:xlink="http://www.w3.org/1999/xlink">
<path d="M2.05,1.479C2.597,1.401 2.977,0.895 2.899,0.348C2.821,-0.199 2.314,-0.579 1.768,-0.501L2.05,1.479ZM1.29,1.831L2.138,2.361L2.138,2.361L1.29,1.831ZM0.234,1.562C-0.226,1.868 -0.35,2.489 -0.043,2.949C0.263,3.408 0.884,3.533 1.343,3.226L0.234,1.562ZM1.768,-0.501C1.399,-0.448 1.171,-0.227 1.077,-0.123C0.969,-0.004 0.895,0.122 0.848,0.21C0.753,0.39 0.677,0.594 0.622,0.75C0.577,0.88 0.499,1.117 0.471,1.197C0.416,1.358 0.408,1.354 0.442,1.301L2.138,2.361C2.204,2.255 2.25,2.146 2.277,2.079C2.308,2.002 2.337,1.921 2.363,1.848C2.388,1.774 2.414,1.695 2.438,1.623C2.463,1.549 2.486,1.479 2.509,1.412C2.56,1.268 2.595,1.185 2.615,1.148C2.625,1.128 2.61,1.163 2.561,1.217C2.527,1.256 2.359,1.435 2.05,1.479L1.768,-0.501ZM0.442,1.301C0.321,1.493 0.271,1.537 0.234,1.562L1.343,3.226C1.744,2.959 1.977,2.618 2.138,2.361L0.442,1.301Z" fill="#FFFFFF"/>
</svg>
