<svg width="64" height="64" viewBox="0 0 64 64" fill="none" xmlns="http://www.w3.org/2000/svg" xmlns:xlink="http://www.w3.org/1999/xlink">
<path d="M22.5,52C22.5,52.276 22.276,52.5 22,52.5L22,55.5C23.933,55.5 25.5,53.933 25.5,52L22.5,52ZM22,52.5C21.724,52.5 21.5,52.276 21.5,52L18.5,52C18.5,53.933 20.067,55.5 22,55.5L22,52.5ZM21.5,52C21.5,51.724 21.724,51.5 22,51.5L22,48.5C20.067,48.5 18.5,50.067 18.5,52L21.5,52ZM22,51.5C22.276,51.5 22.5,51.724 22.5,52L25.5,52C25.5,50.067 23.933,48.5 22,48.5L22,51.5Z" fill="#000000"/>
<path d="M50.5,52C50.5,52.276 50.276,52.5 50,52.5L50,55.5C51.933,55.5 53.5,53.933 53.5,52L50.5,52ZM50,52.5C49.724,52.5 49.5,52.276 49.5,52L46.5,52C46.5,53.933 48.067,55.5 50,55.5L50,52.5ZM49.5,52C49.5,51.724 49.724,51.5 50,51.5L50,48.5C48.067,48.5 46.5,50.067 46.5,52L49.5,52ZM50,51.5C50.276,51.5 50.5,51.724 50.5,52L53.5,52C53.5,50.067 51.933,48.5 50,48.5L50,51.5Z" fill="#000000"/>
<path d="M6,8.5C5.172,8.5 4.5,9.172 4.5,10C4.5,10.828 5.172,11.5 6,11.5L6,8.5ZM14,10L15.477,9.739C15.351,9.023 14.728,8.5 14,8.5L14,10ZM20,44L18.523,44.261C18.649,44.977 19.272,45.5 20,45.5L20,44ZM52,45.5C52.828,45.5 53.5,44.828 53.5,44C53.5,43.172 52.828,42.5 52,42.5L52,45.5ZM6,11.5L14,11.5L14,8.5L6,8.5L6,11.5ZM12.523,10.261L18.523,44.261L21.477,43.739L15.477,9.739L12.523,10.261ZM20,45.5L52,45.5L52,42.5L20,42.5L20,45.5Z" fill="#000000"/>
<path d="M20,31.833C19.172,31.833 18.5,32.505 18.5,33.333C18.5,34.162 19.172,34.833 20,34.833L20,31.833ZM51.18,33.333L51.181,31.833L51.18,31.833L51.18,33.333ZM52.161,32.53L53.632,32.824L53.632,32.824L52.161,32.53ZM55.761,14.53L54.29,14.235L54.29,14.235L55.761,14.53ZM54.78,13.333L54.78,14.833L54.781,14.833L54.78,13.333ZM16,11.833C15.172,11.833 14.5,12.505 14.5,13.333C14.5,14.162 15.172,14.833 16,14.833L16,11.833ZM20,34.833L51.18,34.833L51.18,31.833L20,31.833L20,34.833ZM51.179,34.833C51.757,34.834 52.318,34.634 52.765,34.267L50.864,31.947C50.953,31.873 51.065,31.833 51.181,31.833L51.179,34.833ZM52.765,34.267C53.212,33.901 53.519,33.391 53.632,32.824L50.69,32.235C50.713,32.122 50.774,32.02 50.864,31.947L52.765,34.267ZM53.632,32.824L57.232,14.824L54.29,14.235L50.69,32.235L53.632,32.824ZM57.232,14.824C57.305,14.461 57.296,14.087 57.206,13.728L54.296,14.455C54.278,14.383 54.276,14.308 54.29,14.235L57.232,14.824ZM57.206,13.728C57.117,13.369 56.948,13.034 56.714,12.748L54.394,14.65C54.347,14.593 54.314,14.526 54.296,14.455L57.206,13.728ZM56.714,12.748C56.479,12.462 56.184,12.231 55.849,12.073L54.567,14.785C54.5,14.754 54.441,14.708 54.394,14.65L56.714,12.748ZM55.849,12.073C55.515,11.915 55.149,11.833 54.779,11.833L54.781,14.833C54.707,14.833 54.634,14.817 54.567,14.785L55.849,12.073ZM54.78,11.833L16,11.833L16,14.833L54.78,14.833L54.78,11.833Z" fill="#000000"/>
</svg>
