<svg width="6" height="12" viewBox="0 0 6 12" fill="none" xmlns="http://www.w3.org/2000/svg" xmlns:xlink="http://www.w3.org/1999/xlink">
<path d="M3.795,2.376C4.042,1.882 3.842,1.282 3.348,1.035C2.854,0.788 2.253,0.988 2.006,1.482L3.795,2.376ZM2.49,2.738L3.376,3.202L3.376,3.202L2.49,2.738ZM2.337,3.243L3.215,3.721L3.215,3.721L2.337,3.243ZM2.116,3.678L3.116,3.712L2.116,3.678ZM1.839,6.162L0.961,5.683L1.839,6.162ZM1.693,6.703L0.731,6.431L1.693,6.703ZM1.5,7.152L2.493,7.266L1.5,7.152ZM1.139,7.93L0.207,7.567L1.139,7.93ZM0.94,8.353L1.717,8.982L1.717,8.982L0.94,8.353ZM0.504,8.907L1.315,9.492L1.315,9.492L0.504,8.907ZM-0.62,9.772C-0.62,10.324 -0.173,10.772 0.38,10.772C0.932,10.772 1.38,10.324 1.38,9.772L-0.62,9.772ZM2.006,1.482C1.868,1.758 1.739,2.016 1.604,2.274L3.376,3.202C3.521,2.924 3.659,2.649 3.795,2.376L2.006,1.482ZM1.604,2.274C1.539,2.398 1.502,2.513 1.478,2.599C1.456,2.68 1.441,2.759 1.434,2.795C1.425,2.843 1.423,2.85 1.423,2.849C1.424,2.845 1.434,2.811 1.459,2.764L3.215,3.721C3.283,3.597 3.323,3.48 3.348,3.391C3.372,3.306 3.388,3.225 3.396,3.186C3.4,3.162 3.403,3.148 3.406,3.136C3.408,3.124 3.409,3.121 3.409,3.122C3.409,3.123 3.4,3.156 3.376,3.202L1.604,2.274ZM1.459,2.764C1.475,2.735 1.488,2.72 1.48,2.73C1.471,2.741 1.471,2.74 1.45,2.767C1.435,2.786 1.41,2.818 1.383,2.855C1.326,2.934 1.256,3.047 1.202,3.196C1.148,3.344 1.122,3.495 1.117,3.645L3.116,3.712C3.115,3.729 3.113,3.753 3.108,3.783C3.102,3.814 3.093,3.847 3.081,3.881C3.069,3.914 3.054,3.944 3.04,3.969C3.027,3.994 3.015,4.011 3.009,4.02C3.004,4.027 3.002,4.029 3.01,4.019C3.015,4.013 3.018,4.009 3.026,3.999C3.033,3.991 3.042,3.979 3.052,3.967C3.093,3.915 3.155,3.832 3.215,3.721L1.459,2.764ZM1.117,3.645C1.112,3.803 1.116,4.004 1.116,4.095L3.116,4.095C3.116,3.909 3.112,3.831 3.116,3.712L1.117,3.645ZM1.116,4.095C1.116,4.513 1.131,4.788 1.108,5.087C1.088,5.357 1.039,5.541 0.961,5.683L2.717,6.641C2.98,6.159 3.07,5.667 3.103,5.239C3.133,4.839 3.116,4.392 3.116,4.095L1.116,4.095ZM0.961,5.683C0.845,5.897 0.797,6.113 0.774,6.221C0.763,6.271 0.749,6.349 0.744,6.372C0.74,6.391 0.737,6.405 0.735,6.415C0.733,6.42 0.733,6.424 0.732,6.427C0.732,6.428 0.731,6.429 0.731,6.43C0.731,6.431 0.731,6.431 0.731,6.431L2.655,6.976C2.678,6.896 2.694,6.82 2.704,6.767C2.718,6.698 2.721,6.679 2.731,6.635C2.738,6.601 2.742,6.587 2.743,6.584C2.744,6.581 2.737,6.604 2.717,6.641L0.961,5.683ZM0.731,6.431C0.744,6.385 0.757,6.362 0.751,6.374C0.742,6.391 0.736,6.402 0.707,6.457C0.685,6.497 0.645,6.571 0.609,6.655C0.574,6.739 0.526,6.873 0.507,7.037L2.493,7.266C2.483,7.361 2.457,7.422 2.453,7.432C2.448,7.443 2.448,7.442 2.467,7.406C2.478,7.384 2.514,7.319 2.544,7.26C2.575,7.196 2.621,7.097 2.655,6.976L0.731,6.431ZM0.507,7.037C0.516,6.952 0.539,6.912 0.526,6.942C0.517,6.963 0.499,6.999 0.465,7.061C0.448,7.091 0.432,7.121 0.412,7.157C0.393,7.191 0.371,7.23 0.349,7.269C0.31,7.342 0.252,7.45 0.207,7.567L2.071,8.292C2.068,8.3 2.074,8.284 2.106,8.225C2.121,8.198 2.137,8.17 2.156,8.135C2.175,8.102 2.197,8.062 2.219,8.022C2.262,7.944 2.316,7.841 2.364,7.73C2.408,7.627 2.471,7.462 2.493,7.266L0.507,7.037ZM0.207,7.567C0.175,7.649 0.154,7.713 0.139,7.761C0.136,7.772 0.133,7.782 0.13,7.789C0.128,7.797 0.126,7.802 0.125,7.806C0.123,7.814 0.124,7.811 0.126,7.803C0.13,7.794 0.135,7.78 0.143,7.764C0.151,7.748 0.158,7.735 0.165,7.724C0.177,7.703 0.181,7.701 0.163,7.724L1.717,8.982C1.835,8.836 1.93,8.691 1.999,8.505C2.023,8.443 2.044,8.372 2.047,8.36C2.055,8.337 2.061,8.317 2.071,8.292L0.207,7.567ZM0.163,7.724C0.029,7.889 -0.15,8.105 -0.307,8.321L1.315,9.492C1.43,9.334 1.56,9.176 1.717,8.982L0.163,7.724ZM-0.307,8.321C-0.554,8.664 -0.601,9.044 -0.616,9.253C-0.63,9.453 -0.62,9.722 -0.62,9.772L1.38,9.772C1.38,9.729 1.379,9.686 1.378,9.649C1.377,9.609 1.377,9.578 1.376,9.544C1.375,9.478 1.376,9.431 1.379,9.394C1.382,9.357 1.385,9.349 1.382,9.361C1.378,9.373 1.363,9.426 1.315,9.492L-0.307,8.321Z" fill="#FFFFFF"/>
<path d="M4.11,3.459C4.133,2.907 3.705,2.44 3.153,2.417C2.602,2.393 2.135,2.822 2.112,3.374L4.11,3.459ZM3.053,3.674L4.029,3.891L3.053,3.674ZM3.021,3.81L3.96,4.153L3.96,4.153L3.021,3.81ZM2.98,3.912L3.966,4.08L2.98,3.912ZM2.943,4.023L1.969,3.795L2.943,4.023ZM2.935,4.137L1.938,4.061L2.935,4.137ZM2.927,4.748L3.909,4.935L2.927,4.748ZM2.879,4.88L1.935,4.548L2.879,4.88ZM2.74,5.142L1.761,4.937L2.74,5.142ZM2.577,5.58L3.476,6.017L2.577,5.58ZM2.464,5.863L1.594,5.37L1.594,5.37L2.464,5.863ZM2.262,6.193L2.95,6.919L2.95,6.919L2.262,6.193ZM2.151,6.359L1.385,5.716L1.385,5.716L2.151,6.359ZM2.03,6.478L1.28,5.817L1.28,5.817L2.03,6.478ZM1.988,6.537L2.744,7.192L1.988,6.537ZM1.967,6.603L0.971,6.516L1.967,6.603ZM1.943,6.665L2.901,6.953L1.943,6.665ZM1.889,6.844L2.714,7.408L1.889,6.844ZM1.797,6.988L2.485,7.714L2.485,7.714L1.797,6.988ZM1.678,7.166L2.404,7.854L2.404,7.854L1.678,7.166ZM1.606,7.292L2.402,7.897L1.606,7.292ZM1.51,7.454L2.289,8.081L2.289,8.081L1.51,7.454ZM1.293,7.679L1.916,8.461L1.293,7.679ZM1.117,7.585L2.048,7.22L1.117,7.585ZM1.063,7.336L0.076,7.497L1.063,7.336ZM1.171,7.056L1.919,7.721L1.919,7.721L1.171,7.056ZM1.292,6.956L2.068,7.586L1.292,6.956ZM1.403,6.698L0.499,6.272L0.499,6.272L1.403,6.698ZM1.453,6.578L2.435,6.765L1.453,6.578ZM1.604,6.241L0.63,6.013L1.604,6.241ZM1.639,6.155L0.674,5.893L1.639,6.155ZM1.791,5.793L0.83,5.515L1.791,5.793ZM1.849,5.653L0.881,5.4L1.849,5.653ZM1.89,5.56L2.863,5.793L1.89,5.56ZM1.912,5.493L2.817,5.919L2.817,5.919L1.912,5.493ZM1.94,5.348L2.923,5.53L1.94,5.348ZM1.973,5.228L2.936,5.5L1.973,5.228ZM1.996,5.101L1.028,4.851L1.996,5.101ZM2.01,4.956L1.021,4.808L2.01,4.956ZM2.058,4.815L1.263,4.209L2.058,4.815ZM2.129,4.581L1.195,4.224L2.129,4.581ZM2.189,4.363L1.259,3.994L2.189,4.363ZM2.224,4.24L3.148,4.621L3.148,4.621L2.224,4.24ZM2.257,4.109L1.262,4.208L2.257,4.109ZM2.188,4.21L3.029,4.75L3.029,4.75L2.188,4.21ZM2.104,4.37L1.234,3.877L2.104,4.37ZM1.972,4.598L1.164,4.008L1.164,4.008L1.972,4.598ZM1.9,4.852L0.91,4.71L1.9,4.852ZM1.809,5.419L0.82,5.267L1.809,5.419ZM1.793,5.488L2.781,5.64L1.793,5.488ZM1.747,5.581L0.795,5.275L1.747,5.581ZM1.726,5.663L2.526,6.263L2.526,6.263L1.726,5.663ZM1.697,5.729L2.652,6.027L1.697,5.729ZM1.641,5.921L2.543,6.353L1.641,5.921ZM1.544,6.115L2.51,6.373L1.544,6.115ZM1.508,6.189L2.395,6.65L1.508,6.189ZM1.485,6.266L0.582,5.836L1.485,6.266ZM1.428,6.395L2.423,6.5L1.428,6.395ZM1.411,6.464L0.445,6.206L1.411,6.464ZM1.352,6.654L2.305,6.959L2.305,6.959L1.352,6.654ZM1.254,6.924L2.251,7L1.254,6.924ZM1.233,7.156L2.228,7.26L1.233,7.156ZM1.176,7.36L2.156,7.56L1.176,7.36ZM1.142,7.449L0.353,6.835L0.353,6.835L1.142,7.449ZM1.105,7.528L1.905,8.128L1.905,8.128L1.105,7.528ZM0.879,7.709L1.459,8.524L0.879,7.709ZM-0.199,7.63C-0.308,8.172 0.044,8.699 0.585,8.807C1.127,8.915 1.654,8.564 1.762,8.023L-0.199,7.63ZM2.112,3.374C2.113,3.335 2.118,3.307 2.121,3.293C2.123,3.28 2.125,3.274 2.123,3.283C2.121,3.288 2.12,3.293 2.117,3.303C2.115,3.31 2.111,3.325 2.107,3.338C2.099,3.365 2.088,3.408 2.077,3.457L4.029,3.891C4.027,3.898 4.027,3.898 4.032,3.882C4.033,3.877 4.045,3.835 4.052,3.808C4.069,3.746 4.103,3.616 4.11,3.459L2.112,3.374ZM2.077,3.457C2.071,3.482 2.067,3.504 2.064,3.516C2.063,3.524 2.062,3.527 2.061,3.531C2.061,3.535 2.06,3.537 2.06,3.538C2.06,3.539 2.061,3.533 2.064,3.522C2.067,3.51 2.072,3.492 2.081,3.468L3.96,4.153C3.992,4.065 4.009,3.988 4.018,3.948C4.022,3.928 4.026,3.908 4.027,3.9C4.029,3.89 4.029,3.889 4.029,3.891L2.077,3.457ZM2.081,3.468C2.093,3.435 2.104,3.412 2.106,3.408C2.107,3.406 2.107,3.405 2.105,3.41C2.103,3.413 2.099,3.422 2.094,3.432C2.077,3.468 2.021,3.586 1.994,3.743L3.966,4.08C3.955,4.143 3.939,4.194 3.927,4.228C3.915,4.261 3.904,4.284 3.902,4.288C3.901,4.29 3.9,4.291 3.903,4.286C3.905,4.282 3.909,4.273 3.914,4.263C3.924,4.242 3.942,4.203 3.96,4.153L2.081,3.468ZM1.994,3.743C2.003,3.694 2.014,3.654 2.023,3.628C2.027,3.615 2.031,3.605 2.033,3.6C2.035,3.594 2.036,3.591 2.035,3.593C2.035,3.595 2.034,3.596 2.033,3.599C2.032,3.601 2.03,3.605 2.029,3.61C2.025,3.619 2.019,3.633 2.013,3.65C2.001,3.683 1.984,3.733 1.969,3.795L3.917,4.251C3.907,4.293 3.896,4.324 3.89,4.34C3.887,4.35 3.881,4.363 3.89,4.343C3.899,4.32 3.943,4.216 3.966,4.08L1.994,3.743ZM1.969,3.795C1.942,3.911 1.939,4.009 1.937,4.049C1.937,4.059 1.937,4.069 1.937,4.074C1.937,4.082 1.937,4.083 1.936,4.085C1.936,4.088 1.937,4.077 1.938,4.061L3.932,4.214C3.935,4.178 3.936,4.148 3.936,4.132C3.936,4.125 3.936,4.116 3.936,4.114C3.936,4.11 3.936,4.11 3.936,4.111C3.936,4.114 3.936,4.13 3.933,4.152C3.931,4.176 3.926,4.21 3.917,4.251L1.969,3.795ZM1.938,4.061C1.921,4.277 1.928,4.521 1.928,4.637L3.928,4.637C3.928,4.42 3.923,4.329 3.932,4.214L1.938,4.061ZM1.928,4.637C1.928,4.666 1.929,4.691 1.93,4.701C1.93,4.709 1.93,4.71 1.93,4.713C1.93,4.715 1.93,4.715 1.93,4.712C1.93,4.708 1.93,4.692 1.931,4.669C1.932,4.645 1.935,4.608 1.944,4.561L3.909,4.935C3.932,4.814 3.931,4.712 3.93,4.673C3.929,4.652 3.929,4.63 3.928,4.627C3.928,4.618 3.928,4.625 3.928,4.637L1.928,4.637ZM1.944,4.561C1.952,4.521 1.961,4.489 1.969,4.467C1.976,4.446 1.981,4.432 1.982,4.431C1.982,4.431 1.981,4.432 1.979,4.437C1.978,4.441 1.974,4.45 1.97,4.459C1.962,4.477 1.949,4.509 1.935,4.548L3.822,5.212C3.816,5.228 3.812,5.238 3.813,5.235C3.814,5.233 3.815,5.231 3.818,5.224C3.82,5.219 3.824,5.209 3.829,5.198C3.846,5.156 3.885,5.06 3.909,4.935L1.944,4.561ZM1.935,4.548C1.959,4.481 1.985,4.438 1.991,4.428C1.993,4.425 1.998,4.416 1.973,4.455C1.956,4.48 1.917,4.539 1.879,4.611C1.84,4.686 1.79,4.797 1.761,4.937L3.718,5.347C3.699,5.44 3.668,5.506 3.651,5.537C3.637,5.566 3.625,5.582 3.637,5.564C3.639,5.561 3.641,5.557 3.646,5.551C3.649,5.545 3.654,5.538 3.66,5.53C3.67,5.514 3.686,5.49 3.702,5.463C3.734,5.411 3.783,5.324 3.822,5.212L1.935,4.548ZM1.761,4.937C1.755,4.964 1.737,5.019 1.677,5.143L3.476,6.017C3.553,5.859 3.661,5.623 3.718,5.347L1.761,4.937ZM1.677,5.143C1.646,5.208 1.623,5.266 1.608,5.309C1.594,5.347 1.58,5.389 1.575,5.403C1.568,5.425 1.566,5.428 1.568,5.424C1.57,5.42 1.578,5.399 1.594,5.37L3.334,6.357C3.412,6.22 3.455,6.088 3.47,6.042C3.482,6.008 3.484,6.001 3.487,5.991C3.489,5.986 3.486,5.997 3.476,6.017L1.677,5.143ZM1.594,5.37C1.565,5.423 1.54,5.472 1.525,5.501C1.517,5.518 1.512,5.528 1.506,5.54C1.501,5.55 1.497,5.557 1.495,5.561C1.49,5.571 1.493,5.563 1.504,5.548C1.515,5.532 1.537,5.502 1.574,5.467L2.95,6.919C3.111,6.766 3.206,6.601 3.255,6.511C3.28,6.465 3.303,6.419 3.314,6.396C3.321,6.382 3.325,6.373 3.329,6.366C3.333,6.359 3.334,6.356 3.334,6.357L1.594,5.37ZM1.574,5.467C1.493,5.544 1.438,5.619 1.403,5.67C1.369,5.721 1.343,5.766 1.333,5.785C1.316,5.815 1.321,5.806 1.323,5.803C1.327,5.795 1.349,5.76 1.385,5.716L2.917,7.002C2.947,6.967 2.971,6.934 2.99,6.907C3.009,6.879 3.024,6.854 3.036,6.835C3.048,6.816 3.057,6.799 3.064,6.787C3.067,6.782 3.07,6.776 3.072,6.773C3.074,6.768 3.075,6.766 3.077,6.764C3.079,6.76 3.078,6.761 3.076,6.765C3.074,6.769 3.068,6.778 3.059,6.791C3.043,6.815 3.008,6.864 2.95,6.919L1.574,5.467ZM1.385,5.716C1.404,5.695 1.418,5.68 1.424,5.675C1.428,5.67 1.43,5.669 1.42,5.678C1.413,5.684 1.392,5.704 1.37,5.724C1.347,5.746 1.315,5.777 1.28,5.817L2.78,7.14C2.764,7.158 2.752,7.169 2.75,7.172C2.749,7.173 2.748,7.173 2.763,7.16C2.773,7.15 2.796,7.13 2.821,7.105C2.847,7.08 2.881,7.045 2.917,7.002L1.385,5.716ZM1.28,5.817C1.244,5.858 1.217,5.894 1.2,5.919C1.184,5.942 1.171,5.962 1.169,5.965C1.164,5.973 1.171,5.963 1.179,5.951C1.189,5.937 1.207,5.912 1.233,5.882L2.744,7.192C2.778,7.153 2.804,7.118 2.82,7.094C2.829,7.082 2.835,7.071 2.84,7.064C2.845,7.057 2.849,7.051 2.85,7.05C2.852,7.047 2.851,7.048 2.849,7.05C2.848,7.053 2.844,7.058 2.839,7.066C2.828,7.081 2.808,7.108 2.78,7.14L1.28,5.817ZM1.233,5.882C0.984,6.169 0.972,6.504 0.971,6.516L2.963,6.689C2.962,6.703 2.957,6.76 2.937,6.834C2.918,6.904 2.869,7.048 2.744,7.192L1.233,5.882ZM0.971,6.516C0.977,6.442 0.993,6.369 1.017,6.299C1.039,6.232 1.064,6.184 1.072,6.169C1.074,6.166 1.079,6.156 1.073,6.167C1.07,6.173 1.062,6.188 1.053,6.207C1.032,6.248 1.007,6.306 0.985,6.378L2.901,6.953C2.883,7.012 2.863,7.059 2.847,7.09C2.84,7.104 2.835,7.114 2.834,7.116C2.831,7.122 2.838,7.108 2.842,7.1C2.855,7.076 2.884,7.019 2.91,6.943C2.938,6.862 2.956,6.777 2.963,6.689L0.971,6.516ZM0.985,6.378C0.966,6.442 0.955,6.497 0.95,6.525C0.948,6.536 0.945,6.553 0.945,6.554C0.944,6.558 0.944,6.555 0.946,6.549C0.949,6.535 0.957,6.496 0.976,6.447C0.996,6.394 1.024,6.336 1.064,6.279L2.714,7.408C2.838,7.228 2.882,7.057 2.902,6.964C2.907,6.943 2.91,6.925 2.912,6.915C2.915,6.9 2.914,6.902 2.915,6.898C2.915,6.896 2.911,6.92 2.901,6.953L0.985,6.378ZM1.064,6.279C1.045,6.306 1.03,6.33 1.019,6.349C1.007,6.369 0.998,6.386 0.991,6.398C0.984,6.41 0.978,6.421 0.975,6.427C0.974,6.43 0.973,6.432 0.972,6.433C0.971,6.435 0.971,6.436 0.971,6.435C0.971,6.435 0.973,6.431 0.977,6.424C0.981,6.417 0.989,6.406 0.998,6.391C1.008,6.377 1.022,6.358 1.039,6.337C1.057,6.315 1.08,6.29 1.109,6.262L2.485,7.714C2.561,7.642 2.614,7.572 2.649,7.521C2.683,7.471 2.708,7.426 2.722,7.402C2.729,7.389 2.735,7.378 2.738,7.372C2.74,7.368 2.741,7.366 2.742,7.364C2.743,7.363 2.743,7.363 2.743,7.362C2.743,7.362 2.744,7.361 2.744,7.361C2.744,7.361 2.743,7.362 2.743,7.362C2.743,7.363 2.742,7.363 2.742,7.364C2.741,7.366 2.739,7.369 2.737,7.373C2.733,7.38 2.725,7.393 2.714,7.408L1.064,6.279ZM1.109,6.262C1.021,6.345 0.962,6.428 0.924,6.486C0.889,6.54 0.862,6.591 0.855,6.604C0.842,6.629 0.849,6.615 0.86,6.598C0.873,6.577 0.903,6.531 0.952,6.478L2.404,7.854C2.479,7.775 2.53,7.699 2.562,7.647C2.579,7.621 2.592,7.598 2.601,7.581C2.609,7.566 2.617,7.551 2.62,7.546C2.629,7.528 2.62,7.547 2.604,7.572C2.585,7.6 2.547,7.655 2.485,7.714L1.109,6.262ZM0.952,6.478C0.876,6.559 0.825,6.637 0.791,6.695C0.76,6.749 0.738,6.797 0.731,6.812C0.719,6.839 0.727,6.821 0.734,6.807C0.744,6.787 0.769,6.741 0.81,6.687L2.402,7.897C2.431,7.86 2.454,7.825 2.472,7.794C2.491,7.763 2.505,7.736 2.516,7.715C2.527,7.693 2.536,7.675 2.541,7.664C2.544,7.658 2.546,7.653 2.547,7.65C2.549,7.646 2.55,7.645 2.55,7.644C2.551,7.641 2.549,7.646 2.545,7.654C2.541,7.663 2.533,7.677 2.523,7.696C2.502,7.732 2.464,7.791 2.404,7.854L0.952,6.478ZM0.81,6.687C0.763,6.748 0.73,6.804 0.708,6.844C0.687,6.881 0.67,6.916 0.666,6.923C0.659,6.938 0.663,6.928 0.672,6.914C0.681,6.897 0.701,6.865 0.731,6.827L2.289,8.081C2.34,8.018 2.377,7.96 2.403,7.916C2.427,7.874 2.445,7.836 2.452,7.823C2.463,7.803 2.459,7.81 2.454,7.819C2.447,7.832 2.43,7.861 2.402,7.897L0.81,6.687ZM0.731,6.827C0.71,6.853 0.694,6.872 0.682,6.885C0.669,6.899 0.665,6.901 0.671,6.897L1.916,8.461C2.081,8.33 2.208,8.182 2.289,8.081L0.731,6.827ZM0.671,6.897C0.64,6.921 0.616,6.943 0.606,6.952C0.596,6.962 0.586,6.971 0.584,6.973C0.574,6.983 0.584,6.973 0.598,6.96C0.61,6.95 0.654,6.912 0.722,6.871C0.757,6.85 0.814,6.819 0.888,6.792C0.962,6.766 1.075,6.735 1.216,6.735L1.216,8.735C1.364,8.735 1.484,8.703 1.564,8.675C1.645,8.646 1.708,8.611 1.751,8.586C1.832,8.537 1.891,8.487 1.917,8.464C1.945,8.44 1.969,8.416 1.971,8.414C1.99,8.396 1.957,8.429 1.916,8.461L0.671,6.897ZM1.216,6.735C1.613,6.735 1.849,6.965 1.915,7.036C1.995,7.122 2.034,7.199 2.043,7.217C2.057,7.243 2.081,7.303 2.048,7.22L0.186,7.95C0.167,7.901 0.216,8.037 0.264,8.129C0.29,8.18 0.348,8.288 0.449,8.397C0.536,8.491 0.795,8.735 1.216,8.735L1.216,6.735ZM2.048,7.22C2.056,7.242 2.061,7.258 2.064,7.268C2.066,7.277 2.067,7.282 2.066,7.278C2.065,7.273 2.064,7.265 2.061,7.246C2.061,7.242 2.06,7.238 2.059,7.232C2.058,7.227 2.057,7.221 2.056,7.216C2.055,7.204 2.053,7.19 2.05,7.175L0.076,7.497C0.077,7.5 0.104,7.742 0.186,7.95L2.048,7.22ZM2.05,7.175C2.043,7.132 2.035,7.097 2.031,7.082C2.027,7.067 2.023,7.05 2.023,7.05C2.019,7.037 2.027,7.064 2.033,7.102C2.039,7.136 2.053,7.235 2.035,7.363C2.015,7.503 1.951,7.714 1.767,7.899L0.352,6.485C0.151,6.686 0.078,6.919 0.055,7.083C0.033,7.237 0.049,7.362 0.059,7.423C0.07,7.488 0.084,7.543 0.088,7.555C0.098,7.593 0.084,7.546 0.076,7.497L2.05,7.175ZM1.767,7.899C1.836,7.829 1.887,7.763 1.908,7.736C1.924,7.716 1.924,7.715 1.929,7.709C1.932,7.706 1.927,7.711 1.919,7.721L0.424,6.392C0.396,6.423 0.373,6.452 0.358,6.471C0.35,6.481 0.343,6.491 0.338,6.497C0.331,6.506 0.329,6.508 0.325,6.514C0.319,6.522 0.319,6.521 0.323,6.516C0.327,6.511 0.337,6.5 0.352,6.485L1.767,7.899ZM1.919,7.721C1.876,7.769 1.837,7.801 1.818,7.816C1.802,7.828 1.788,7.838 1.807,7.825C1.816,7.819 1.855,7.792 1.897,7.757C1.942,7.721 2.005,7.664 2.068,7.586L0.516,6.325C0.563,6.267 0.607,6.228 0.632,6.208C0.644,6.198 0.654,6.191 0.658,6.188C0.662,6.185 0.664,6.184 0.659,6.187C0.656,6.189 0.645,6.197 0.633,6.205C0.621,6.214 0.604,6.227 0.583,6.243C0.543,6.274 0.485,6.323 0.424,6.392L1.919,7.721ZM2.068,7.586C2.164,7.469 2.218,7.358 2.247,7.295C2.258,7.27 2.272,7.238 2.272,7.238C2.275,7.23 2.273,7.236 2.268,7.247L0.479,6.352C0.459,6.391 0.444,6.425 0.436,6.444C0.434,6.449 0.432,6.453 0.431,6.457C0.429,6.46 0.428,6.463 0.427,6.465C0.425,6.469 0.426,6.469 0.427,6.466C0.429,6.462 0.437,6.443 0.452,6.417C0.468,6.39 0.489,6.358 0.516,6.325L2.068,7.586ZM2.268,7.247C2.307,7.167 2.33,7.097 2.344,7.048C2.357,7.003 2.365,6.963 2.367,6.957C2.368,6.95 2.368,6.953 2.367,6.956C2.366,6.961 2.363,6.971 2.36,6.985C2.352,7.013 2.337,7.064 2.308,7.124L0.499,6.272C0.463,6.349 0.442,6.416 0.429,6.461C0.423,6.484 0.419,6.503 0.416,6.516C0.413,6.528 0.411,6.539 0.41,6.541C0.409,6.545 0.41,6.542 0.412,6.536C0.413,6.53 0.416,6.517 0.421,6.501C0.43,6.469 0.447,6.415 0.479,6.352L2.268,7.247ZM2.308,7.124C2.308,7.124 2.307,7.126 2.315,7.11C2.321,7.099 2.331,7.077 2.343,7.051C2.362,7.008 2.409,6.902 2.435,6.765L0.47,6.391C0.481,6.338 0.494,6.297 0.502,6.274C0.511,6.25 0.518,6.233 0.52,6.228C0.523,6.223 0.524,6.221 0.52,6.229C0.518,6.233 0.507,6.254 0.499,6.272L2.308,7.124ZM2.435,6.765C2.427,6.807 2.418,6.837 2.413,6.853C2.407,6.871 2.402,6.885 2.398,6.896C2.391,6.911 2.379,6.94 2.355,6.979L0.64,5.951C0.578,6.055 0.504,6.215 0.47,6.391L2.435,6.765ZM2.355,6.979C2.363,6.966 2.361,6.97 2.392,6.922C2.413,6.888 2.45,6.829 2.486,6.757L0.697,5.862C0.707,5.844 0.712,5.836 0.701,5.854C0.699,5.858 0.696,5.862 0.692,5.868C0.688,5.874 0.683,5.882 0.679,5.889C0.669,5.904 0.655,5.926 0.64,5.951L2.355,6.979ZM2.486,6.757C2.579,6.571 2.593,6.405 2.597,6.356C2.597,6.349 2.598,6.344 2.598,6.34C2.598,6.337 2.598,6.333 2.598,6.333C2.599,6.331 2.598,6.337 2.597,6.346C2.596,6.365 2.591,6.411 2.578,6.469L0.63,6.013C0.614,6.083 0.608,6.141 0.605,6.171C0.604,6.186 0.603,6.198 0.603,6.201C0.602,6.207 0.603,6.201 0.603,6.196C0.605,6.169 0.616,6.025 0.697,5.862L2.486,6.757ZM2.578,6.469C2.563,6.531 2.545,6.577 2.535,6.603C2.529,6.616 2.525,6.626 2.522,6.631C2.52,6.635 2.519,6.638 2.52,6.635C2.521,6.634 2.525,6.625 2.529,6.616C2.534,6.606 2.541,6.592 2.549,6.574C2.564,6.539 2.585,6.485 2.604,6.416L0.674,5.893C0.688,5.84 0.704,5.8 0.713,5.78C0.72,5.763 0.728,5.748 0.721,5.761C0.719,5.767 0.703,5.798 0.688,5.836C0.671,5.876 0.648,5.937 0.63,6.013L2.578,6.469ZM2.604,6.416C2.592,6.461 2.576,6.487 2.61,6.418C2.621,6.394 2.646,6.345 2.67,6.292C2.695,6.236 2.725,6.161 2.751,6.072L0.83,5.515C0.838,5.489 0.845,5.475 0.843,5.478C0.84,5.485 0.836,5.494 0.819,5.528C0.794,5.577 0.721,5.72 0.674,5.893L2.604,6.416ZM2.751,6.072C2.739,6.115 2.725,6.147 2.719,6.162C2.714,6.173 2.709,6.183 2.718,6.164C2.724,6.152 2.741,6.118 2.758,6.077C2.776,6.033 2.798,5.975 2.816,5.905L0.881,5.4C0.893,5.356 0.906,5.323 0.914,5.303C0.921,5.285 0.927,5.274 0.922,5.285C0.921,5.287 0.915,5.298 0.911,5.308C0.905,5.319 0.898,5.335 0.889,5.354C0.873,5.392 0.85,5.447 0.83,5.515L2.751,6.072ZM2.816,5.905C2.797,5.978 2.773,6.033 2.757,6.066C2.75,6.082 2.743,6.094 2.74,6.099C2.738,6.103 2.736,6.107 2.739,6.101C2.741,6.097 2.748,6.086 2.755,6.072C2.763,6.057 2.774,6.036 2.786,6.011C2.811,5.959 2.841,5.885 2.863,5.793L0.918,5.328C0.936,5.253 0.96,5.195 0.977,5.159C0.985,5.141 0.992,5.127 0.996,5.12C1,5.114 1.002,5.109 1,5.113C1,5.114 0.993,5.125 0.987,5.136C0.98,5.149 0.97,5.168 0.958,5.192C0.935,5.239 0.905,5.31 0.881,5.4L2.816,5.905ZM2.863,5.793C2.861,5.801 2.858,5.814 2.852,5.83C2.848,5.844 2.837,5.877 2.817,5.919L1.008,5.067C0.955,5.179 0.929,5.282 0.918,5.328L2.863,5.793ZM2.817,5.919C2.895,5.753 2.916,5.604 2.923,5.549C2.925,5.533 2.926,5.519 2.927,5.511C2.929,5.498 2.928,5.5 2.929,5.495C2.929,5.489 2.928,5.505 2.923,5.53L0.957,5.166C0.948,5.214 0.943,5.256 0.941,5.275C0.94,5.28 0.94,5.285 0.94,5.288C0.939,5.292 0.939,5.294 0.939,5.296C0.938,5.3 0.938,5.298 0.939,5.295C0.94,5.289 0.943,5.262 0.952,5.225C0.961,5.187 0.978,5.131 1.008,5.067L2.817,5.919ZM2.923,5.53C2.92,5.547 2.917,5.56 2.915,5.567C2.913,5.574 2.912,5.577 2.913,5.574C2.914,5.572 2.915,5.57 2.916,5.566C2.916,5.564 2.917,5.562 2.918,5.559C2.919,5.557 2.919,5.554 2.92,5.551C2.924,5.54 2.93,5.521 2.936,5.5L1.011,4.956C1.011,4.955 1.011,4.956 1.008,4.964C1.007,4.969 1.002,4.986 0.997,5.001C0.988,5.032 0.97,5.093 0.957,5.166L2.923,5.53ZM2.936,5.5C2.95,5.448 2.959,5.403 2.965,5.37C2.971,5.338 2.974,5.311 2.976,5.3C2.978,5.285 2.977,5.289 2.976,5.295C2.975,5.303 2.972,5.323 2.965,5.351L1.028,4.851C1.015,4.899 1.008,4.941 1.003,4.97C0.999,4.997 0.995,5.023 0.994,5.029C0.993,5.04 0.994,5.033 0.995,5.023C0.997,5.011 1.002,4.987 1.011,4.956L2.936,5.5ZM2.965,5.351C2.983,5.28 2.992,5.219 2.997,5.173C3.002,5.128 3.003,5.09 3.004,5.072C3.004,5.064 3.005,5.052 3.005,5.05C3.005,5.046 3.005,5.046 3.005,5.048C3.005,5.052 3.004,5.074 2.999,5.105L1.021,4.808C1.013,4.862 1.01,4.908 1.008,4.936C1.007,4.95 1.007,4.963 1.007,4.971C1.006,4.974 1.006,4.979 1.006,4.981C1.006,4.983 1.006,4.985 1.006,4.986C1.006,4.988 1.006,4.986 1.006,4.981C1.007,4.977 1.007,4.968 1.008,4.957C1.011,4.935 1.016,4.898 1.028,4.851L2.965,5.351ZM2.999,5.105C2.994,5.135 2.989,5.158 2.982,5.181C2.978,5.194 2.969,5.219 2.955,5.251C2.943,5.278 2.912,5.344 2.853,5.421L1.263,4.209C1.14,4.37 1.088,4.536 1.073,4.585C1.049,4.661 1.032,4.738 1.021,4.808L2.999,5.105ZM2.853,5.421C2.951,5.293 3.002,5.169 3.029,5.091C3.057,5.011 3.072,4.942 3.079,4.907C3.083,4.888 3.087,4.87 3.088,4.862C3.089,4.856 3.09,4.853 3.09,4.85C3.091,4.848 3.091,4.847 3.091,4.848C3.091,4.848 3.089,4.856 3.085,4.87C3.082,4.883 3.075,4.907 3.063,4.938L1.195,4.224C1.176,4.272 1.164,4.315 1.155,4.347C1.146,4.38 1.14,4.409 1.135,4.429C1.131,4.449 1.127,4.468 1.125,4.478C1.123,4.491 1.122,4.495 1.121,4.497C1.121,4.499 1.122,4.494 1.124,4.485C1.127,4.476 1.131,4.459 1.139,4.436C1.147,4.414 1.159,4.382 1.178,4.345C1.197,4.307 1.224,4.26 1.263,4.209L2.853,5.421ZM3.063,4.938C3.088,4.874 3.104,4.817 3.114,4.776C3.124,4.737 3.132,4.7 3.135,4.686C3.14,4.666 3.14,4.667 3.138,4.672C3.136,4.679 3.13,4.702 3.118,4.732L1.259,3.994C1.233,4.06 1.216,4.118 1.204,4.162C1.193,4.203 1.185,4.241 1.182,4.258C1.176,4.281 1.176,4.281 1.177,4.279C1.178,4.274 1.184,4.253 1.195,4.224L3.063,4.938ZM3.118,4.732C3.141,4.674 3.156,4.624 3.165,4.588C3.174,4.556 3.18,4.526 3.182,4.52C3.184,4.508 3.182,4.519 3.178,4.533C3.174,4.55 3.164,4.581 3.148,4.621L1.299,3.858C1.275,3.918 1.259,3.97 1.249,4.007C1.239,4.042 1.232,4.073 1.23,4.082C1.227,4.097 1.229,4.088 1.232,4.076C1.236,4.062 1.244,4.032 1.259,3.994L3.118,4.732ZM3.148,4.621C3.153,4.609 3.182,4.542 3.205,4.463C3.225,4.399 3.274,4.225 3.252,4.009L1.262,4.208C1.252,4.111 1.26,4.034 1.267,3.989C1.274,3.942 1.284,3.907 1.29,3.888C1.299,3.856 1.31,3.833 1.299,3.858L3.148,4.621ZM3.252,4.009C3.242,3.914 3.209,3.719 3.067,3.522C2.899,3.29 2.648,3.151 2.386,3.117C2.163,3.088 1.99,3.141 1.909,3.171C1.819,3.204 1.753,3.244 1.717,3.267C1.6,3.342 1.525,3.427 1.524,3.428C1.489,3.466 1.464,3.499 1.461,3.503C1.446,3.522 1.434,3.54 1.429,3.546C1.418,3.562 1.406,3.58 1.397,3.593C1.379,3.62 1.357,3.652 1.346,3.67L3.029,4.75C3.028,4.752 3.031,4.748 3.038,4.738C3.043,4.729 3.05,4.719 3.056,4.71C3.063,4.7 3.066,4.695 3.066,4.696C3.065,4.696 3.064,4.698 3.062,4.701C3.06,4.704 3.055,4.711 3.048,4.72C3.046,4.722 3.023,4.754 2.988,4.791C2.988,4.791 2.913,4.876 2.797,4.95C2.76,4.974 2.694,5.013 2.605,5.046C2.524,5.076 2.35,5.129 2.128,5.1C1.866,5.066 1.615,4.927 1.447,4.696C1.304,4.499 1.271,4.304 1.262,4.208L3.252,4.009ZM1.346,3.67C1.306,3.733 1.279,3.789 1.26,3.831C1.243,3.871 1.231,3.905 1.226,3.918C1.225,3.922 1.224,3.925 1.223,3.927C1.223,3.929 1.222,3.93 1.222,3.93C1.222,3.932 1.223,3.928 1.225,3.922C1.229,3.911 1.241,3.881 1.259,3.844L3.048,4.738C3.073,4.688 3.09,4.645 3.1,4.62C3.104,4.607 3.108,4.596 3.11,4.59C3.111,4.588 3.112,4.585 3.112,4.584C3.113,4.582 3.113,4.582 3.113,4.582C3.113,4.582 3.111,4.587 3.108,4.595C3.106,4.602 3.101,4.614 3.095,4.628C3.082,4.656 3.062,4.7 3.029,4.75L1.346,3.67ZM1.259,3.844C1.273,3.816 1.286,3.795 1.293,3.783C1.3,3.772 1.305,3.765 1.302,3.77C1.301,3.77 1.301,3.771 1.3,3.773C1.299,3.775 1.297,3.777 1.295,3.779C1.292,3.784 1.287,3.792 1.281,3.8C1.27,3.817 1.253,3.844 1.234,3.877L2.974,4.864C2.963,4.883 2.954,4.897 2.951,4.901C2.951,4.902 2.948,4.906 2.957,4.893C2.963,4.884 2.976,4.864 2.991,4.84C3.007,4.815 3.027,4.78 3.048,4.738L1.259,3.844ZM1.234,3.877C1.217,3.907 1.202,3.936 1.191,3.956C1.178,3.98 1.172,3.992 1.164,4.006C1.15,4.032 1.152,4.026 1.164,4.008L2.78,5.187C2.844,5.1 2.89,5.018 2.918,4.967C2.962,4.887 2.952,4.901 2.974,4.864L1.234,3.877ZM1.164,4.008C1.12,4.07 0.962,4.29 0.924,4.593L2.909,4.841C2.899,4.917 2.882,4.975 2.87,5.012C2.856,5.05 2.843,5.08 2.833,5.1C2.814,5.138 2.796,5.166 2.78,5.187L1.164,4.008ZM0.924,4.593C0.917,4.654 0.914,4.677 0.91,4.71L2.889,4.993C2.897,4.937 2.905,4.868 2.909,4.841L0.924,4.593ZM0.91,4.71C0.916,4.665 0.925,4.635 0.926,4.632C0.927,4.63 0.926,4.631 0.924,4.639C0.924,4.64 0.915,4.665 0.912,4.675C0.895,4.726 0.834,4.904 0.834,5.124L2.834,5.124C2.834,5.193 2.825,5.245 2.818,5.273C2.813,5.299 2.807,5.313 2.812,5.298C2.813,5.295 2.814,5.292 2.816,5.286C2.818,5.282 2.82,5.274 2.822,5.267C2.827,5.253 2.834,5.231 2.842,5.207C2.856,5.159 2.876,5.084 2.889,4.993L0.91,4.71ZM0.834,5.124C0.834,5.124 0.834,5.125 0.834,5.125C0.834,5.125 0.834,5.125 0.834,5.125C0.834,5.125 0.834,5.125 0.834,5.125C0.834,5.125 0.834,5.126 0.834,5.126C0.834,5.126 0.834,5.126 0.834,5.126C0.834,5.126 0.834,5.126 0.834,5.126C0.834,5.127 0.834,5.127 0.834,5.127C0.834,5.127 0.834,5.127 0.834,5.127C0.834,5.127 0.834,5.127 0.834,5.127C0.834,5.128 0.834,5.128 0.834,5.128C0.834,5.128 0.834,5.128 0.834,5.128C0.834,5.128 0.834,5.128 0.834,5.129C0.834,5.129 0.834,5.129 0.834,5.129C0.834,5.129 0.834,5.129 0.834,5.129C0.834,5.129 0.834,5.129 0.834,5.13C0.834,5.13 0.834,5.13 0.834,5.13C0.834,5.13 0.834,5.13 0.834,5.13C0.834,5.13 0.834,5.131 0.834,5.131C0.834,5.131 0.834,5.131 0.834,5.131C0.834,5.131 0.834,5.131 0.834,5.131C0.834,5.131 0.834,5.132 0.834,5.132C0.834,5.132 0.834,5.132 0.834,5.132C0.834,5.132 0.834,5.132 0.834,5.132C0.834,5.133 0.834,5.133 0.834,5.133C0.834,5.133 0.834,5.133 0.834,5.133C0.834,5.133 0.834,5.133 0.834,5.133C0.834,5.134 0.834,5.134 0.834,5.134C0.834,5.134 0.834,5.134 0.834,5.134C0.834,5.134 0.834,5.134 0.834,5.135C0.834,5.135 0.834,5.135 0.834,5.135C0.834,5.135 0.834,5.135 0.834,5.135C0.834,5.135 0.834,5.135 0.834,5.136C0.834,5.136 0.834,5.136 0.834,5.136C0.834,5.136 0.834,5.136 0.834,5.136C0.834,5.136 0.834,5.137 0.834,5.137C0.834,5.137 0.834,5.137 0.834,5.137C0.834,5.137 0.834,5.137 0.834,5.137C0.834,5.137 0.834,5.138 0.834,5.138C0.834,5.138 0.834,5.138 0.834,5.138C0.834,5.138 0.834,5.138 0.834,5.138C0.834,5.139 0.834,5.139 0.834,5.139C0.834,5.139 0.834,5.139 0.834,5.139C0.834,5.139 0.834,5.139 0.834,5.139C0.834,5.14 0.834,5.14 0.834,5.14C0.834,5.14 0.834,5.14 0.834,5.14C0.834,5.14 0.834,5.14 0.834,5.141C0.834,5.141 0.834,5.141 0.834,5.141C0.834,5.141 0.834,5.141 0.834,5.141C0.834,5.141 0.834,5.141 0.834,5.142C0.834,5.142 0.834,5.142 0.834,5.142C0.834,5.142 0.834,5.142 0.834,5.142C0.834,5.142 0.834,5.142 0.834,5.143C0.834,5.143 0.834,5.143 0.834,5.143C0.834,5.143 0.834,5.143 0.834,5.143C0.834,5.143 0.834,5.144 0.834,5.144C0.834,5.144 0.834,5.144 0.834,5.144C0.834,5.144 0.834,5.144 0.834,5.144C0.834,5.144 0.834,5.145 0.834,5.145C0.834,5.145 0.834,5.145 0.834,5.145C0.834,5.145 0.834,5.145 0.834,5.145C0.834,5.146 0.834,5.146 0.834,5.146C0.834,5.146 0.834,5.146 0.834,5.146C0.834,5.146 0.834,5.146 0.834,5.146C0.834,5.147 0.834,5.147 0.834,5.147C0.834,5.147 0.834,5.147 0.834,5.147C0.834,5.147 0.834,5.147 0.834,5.148C0.834,5.148 0.834,5.148 0.834,5.148C0.834,5.148 0.834,5.148 0.834,5.148C0.834,5.148 0.834,5.148 0.834,5.149C0.834,5.149 0.834,5.149 0.834,5.149C0.834,5.149 0.834,5.149 0.834,5.149C0.834,5.149 0.834,5.15 0.834,5.15C0.834,5.15 0.834,5.15 0.834,5.15C0.834,5.15 0.834,5.15 0.834,5.15C0.834,5.15 0.834,5.151 0.834,5.151C0.834,5.151 0.834,5.151 0.834,5.151C0.834,5.151 0.834,5.151 0.834,5.151C0.834,5.152 0.834,5.152 0.834,5.152C0.834,5.152 0.834,5.152 0.834,5.152C0.834,5.152 0.834,5.152 0.834,5.152C0.834,5.153 0.834,5.153 0.834,5.153C0.834,5.153 0.834,5.153 0.834,5.153C0.834,5.153 0.834,5.153 0.834,5.154C0.834,5.154 0.834,5.154 0.834,5.154C0.834,5.154 0.834,5.154 0.834,5.154C0.834,5.154 0.834,5.154 0.834,5.155C0.834,5.155 0.834,5.155 0.834,5.155C0.834,5.155 0.834,5.155 0.834,5.155C0.834,5.155 0.834,5.156 0.834,5.156C0.834,5.156 0.834,5.156 0.834,5.156C0.834,5.156 0.834,5.156 0.834,5.156C0.834,5.156 0.834,5.157 0.834,5.157C0.834,5.157 0.834,5.157 0.834,5.157C0.834,5.157 0.834,5.157 0.834,5.157C0.834,5.158 0.834,5.158 0.834,5.158C0.834,5.158 0.834,5.158 0.834,5.158C0.834,5.158 0.834,5.158 0.834,5.158C0.834,5.159 0.834,5.159 0.834,5.159C0.834,5.159 0.834,5.159 0.834,5.159C0.834,5.159 0.834,5.159 0.834,5.16C0.834,5.16 0.834,5.16 0.834,5.16C0.834,5.16 0.834,5.16 0.834,5.16C0.834,5.16 0.834,5.16 0.834,5.161C0.834,5.161 0.834,5.161 0.834,5.161C0.834,5.161 0.834,5.161 0.834,5.161C0.834,5.161 0.834,5.162 0.834,5.162C0.834,5.162 0.834,5.162 0.834,5.162C0.834,5.162 0.834,5.162 0.834,5.162C0.834,5.162 0.834,5.163 0.834,5.163C0.834,5.163 0.834,5.163 0.834,5.163C0.834,5.163 0.834,5.163 0.834,5.163C0.834,5.164 0.834,5.164 0.834,5.164C0.834,5.164 0.834,5.164 0.834,5.164C0.834,5.164 0.834,5.164 0.834,5.164C0.834,5.165 0.834,5.165 0.834,5.165C0.834,5.165 0.834,5.165 0.834,5.165C0.834,5.165 0.834,5.165 0.834,5.166C0.834,5.166 0.834,5.166 0.834,5.166C0.834,5.166 0.834,5.166 0.834,5.166C0.834,5.166 0.834,5.166 0.834,5.167C0.834,5.167 0.834,5.167 0.834,5.167C0.834,5.167 0.834,5.167 0.834,5.167C0.834,5.167 0.834,5.168 0.834,5.168C0.834,5.168 0.834,5.168 0.834,5.168C0.834,5.168 0.834,5.168 0.834,5.168C0.834,5.168 0.834,5.169 0.834,5.169C0.834,5.169 0.834,5.169 0.834,5.169C0.834,5.169 0.834,5.169 0.834,5.169C0.834,5.17 0.834,5.17 0.834,5.17C0.834,5.17 0.834,5.17 0.834,5.17C0.834,5.17 0.834,5.17 0.834,5.17C0.834,5.171 0.834,5.171 0.834,5.171C0.834,5.171 0.834,5.171 0.834,5.171C0.834,5.171 0.834,5.171 0.834,5.172C0.834,5.172 0.834,5.172 0.834,5.172C0.834,5.172 0.834,5.172 0.834,5.172C0.834,5.172 0.834,5.172 0.834,5.173C0.834,5.173 0.834,5.173 0.834,5.173C0.834,5.173 0.834,5.173 0.834,5.173C0.834,5.173 0.834,5.174 0.834,5.174C0.834,5.174 0.834,5.174 0.834,5.174C0.834,5.174 0.834,5.174 0.834,5.174C0.834,5.174 0.834,5.175 0.834,5.175C0.834,5.175 0.834,5.175 0.834,5.175C0.834,5.175 0.834,5.175 0.834,5.175C0.834,5.176 0.834,5.176 0.834,5.176C0.834,5.176 0.834,5.176 0.834,5.176C0.834,5.176 0.834,5.176 0.834,5.176C0.834,5.177 0.834,5.177 0.834,5.177C0.834,5.177 0.834,5.177 0.834,5.177C0.834,5.177 0.834,5.177 0.834,5.178C0.834,5.178 0.834,5.178 0.834,5.178C0.834,5.178 0.834,5.178 0.834,5.178C0.834,5.178 0.834,5.178 0.834,5.179C0.834,5.179 0.834,5.179 0.834,5.179C0.834,5.179 0.834,5.179 0.834,5.179C0.834,5.179 0.834,5.18 0.834,5.18C0.834,5.18 0.834,5.18 0.834,5.18C0.834,5.18 0.834,5.18 0.834,5.18C0.834,5.18 0.834,5.181 0.834,5.181C0.834,5.181 0.834,5.181 0.834,5.181C0.834,5.181 0.834,5.181 0.834,5.181C0.834,5.182 0.834,5.182 0.834,5.182C0.834,5.182 0.834,5.182 0.834,5.182C0.834,5.182 0.834,5.182 0.834,5.182C0.834,5.183 0.834,5.183 0.834,5.183C0.834,5.183 0.834,5.183 0.834,5.183C0.834,5.183 0.834,5.183 0.834,5.184C0.834,5.184 0.834,5.184 0.834,5.184C0.834,5.184 0.834,5.184 0.834,5.184C0.834,5.184 0.834,5.184 0.834,5.185C0.834,5.185 0.834,5.185 0.834,5.185C0.834,5.185 0.834,5.185 0.834,5.185C0.834,5.185 0.834,5.186 0.834,5.186C0.834,5.186 0.834,5.186 0.834,5.186C0.834,5.186 0.834,5.186 0.834,5.186C0.834,5.186 0.834,5.187 0.834,5.187C0.834,5.187 0.834,5.187 0.834,5.187C0.834,5.187 0.834,5.187 0.834,5.187C0.834,5.188 0.834,5.188 0.834,5.188C0.834,5.188 0.834,5.188 0.834,5.188C0.834,5.188 0.834,5.188 0.834,5.188C0.834,5.189 0.834,5.189 0.834,5.189C0.834,5.189 0.834,5.189 0.834,5.189C0.834,5.189 0.834,5.189 0.834,5.19C0.834,5.19 0.834,5.19 0.834,5.19C0.834,5.19 0.834,5.19 0.834,5.19C0.834,5.19 0.834,5.19 0.834,5.191C0.834,5.191 0.834,5.191 0.834,5.191C0.834,5.191 0.834,5.191 0.834,5.191C0.834,5.191 0.834,5.192 0.834,5.192C0.834,5.192 0.834,5.192 0.834,5.192C0.834,5.192 0.834,5.192 0.834,5.192C0.834,5.192 0.834,5.193 0.834,5.193C0.834,5.193 0.834,5.193 0.834,5.193C0.834,5.193 0.834,5.193 0.834,5.193C0.834,5.194 0.834,5.194 0.834,5.194C0.834,5.194 0.834,5.194 0.834,5.194C0.834,5.194 0.834,5.194 0.834,5.194C0.834,5.195 0.834,5.195 0.834,5.195C0.834,5.195 0.834,5.195 0.834,5.195C0.834,5.195 0.834,5.195 0.834,5.196C0.834,5.196 0.834,5.196 0.834,5.196C0.834,5.196 0.834,5.196 0.834,5.196C0.834,5.196 0.834,5.196 0.834,5.197C0.834,5.197 0.834,5.197 0.834,5.197C0.834,5.197 0.834,5.197 0.834,5.197C0.834,5.197 0.834,5.198 0.834,5.198C0.834,5.198 0.834,5.198 0.834,5.198C0.834,5.198 0.834,5.198 0.834,5.198C0.834,5.198 0.834,5.199 0.834,5.199C0.834,5.199 0.834,5.199 0.834,5.199C0.834,5.199 0.834,5.199 0.834,5.199C0.834,5.2 0.834,5.2 0.834,5.2C0.834,5.2 0.834,5.2 0.834,5.2C0.834,5.2 0.834,5.2 0.834,5.2C0.834,5.201 0.834,5.201 0.834,5.201C0.834,5.201 0.834,5.201 0.834,5.201C0.834,5.201 0.834,5.201 0.834,5.202C0.834,5.202 0.834,5.202 0.834,5.202C0.834,5.202 0.834,5.202 0.834,5.202C0.834,5.202 0.834,5.202 0.834,5.203C0.834,5.203 0.834,5.203 0.834,5.203C0.834,5.203 0.834,5.203 0.834,5.203C0.834,5.203 0.834,5.204 0.834,5.204C0.834,5.204 0.834,5.204 0.834,5.204C0.834,5.204 0.834,5.204 0.834,5.204C0.834,5.204 0.834,5.205 0.834,5.205C0.834,5.205 0.834,5.205 0.834,5.205C0.834,5.205 0.834,5.205 0.834,5.205C0.834,5.206 0.834,5.206 0.834,5.206C0.834,5.206 0.834,5.206 0.834,5.206C0.834,5.206 0.834,5.206 0.834,5.206C0.834,5.207 0.834,5.207 0.834,5.207C0.834,5.207 0.834,5.207 0.834,5.207C0.834,5.207 0.834,5.207 0.834,5.208C0.834,5.208 0.834,5.208 0.834,5.208C0.834,5.208 0.834,5.208 0.834,5.208C0.834,5.208 0.834,5.208 0.834,5.209C0.834,5.209 0.834,5.209 0.834,5.209C0.834,5.209 0.834,5.209 0.834,5.209C0.834,5.209 0.834,5.209 0.834,5.21C0.834,5.21 0.834,5.21 0.834,5.21C0.834,5.21 0.834,5.21 0.834,5.21C0.834,5.21 0.834,5.211 0.834,5.211C0.834,5.211 0.834,5.211 0.834,5.211C0.834,5.211 0.834,5.211 0.834,5.211C0.834,5.211 0.834,5.212 0.834,5.212C0.834,5.212 0.834,5.212 0.834,5.212C0.834,5.212 0.834,5.212 0.834,5.212C0.834,5.213 0.834,5.213 0.834,5.213C0.834,5.213 0.834,5.213 0.834,5.213C0.834,5.213 0.834,5.213 0.834,5.213C0.834,5.214 0.834,5.214 0.834,5.214C0.834,5.214 0.834,5.214 0.834,5.214C0.834,5.214 0.834,5.214 0.834,5.215C0.834,5.215 0.834,5.215 0.834,5.215C0.834,5.215 0.834,5.215 0.834,5.215C0.834,5.215 0.834,5.215 0.834,5.216C0.834,5.216 0.834,5.216 0.834,5.216C0.834,5.216 0.834,5.216 0.834,5.216C0.834,5.216 0.834,5.217 0.834,5.217C0.834,5.217 0.834,5.217 0.834,5.217C0.834,5.217 0.834,5.217 0.834,5.217C0.834,5.217 0.834,5.218 0.834,5.218C0.834,5.218 0.834,5.218 0.834,5.218C0.834,5.218 0.834,5.218 0.834,5.218C0.834,5.219 0.834,5.219 0.834,5.219C0.834,5.219 0.834,5.219 0.834,5.219C0.834,5.219 0.834,5.219 0.834,5.219C0.834,5.22 0.834,5.22 0.834,5.22C0.834,5.22 0.834,5.22 0.834,5.22C0.834,5.22 0.834,5.22 0.834,5.221C0.834,5.221 0.834,5.221 0.834,5.221C0.834,5.221 0.834,5.221 0.834,5.221C0.834,5.221 0.834,5.221 0.834,5.222C0.834,5.222 0.834,5.222 0.834,5.222C0.834,5.222 0.834,5.222 0.834,5.222C0.834,5.222 0.834,5.223 0.834,5.223C0.834,5.223 0.834,5.223 0.834,5.223C0.834,5.223 0.834,5.223 0.834,5.223C0.834,5.223 0.834,5.224 0.834,5.224C0.834,5.224 0.834,5.224 0.834,5.224C0.834,5.224 0.834,5.224 0.834,5.224C0.834,5.225 0.834,5.225 0.834,5.225C0.834,5.225 0.834,5.225 0.834,5.225C0.834,5.225 0.834,5.225 0.834,5.225C0.834,5.226 0.834,5.226 0.834,5.226C0.834,5.226 0.834,5.226 0.834,5.226C0.834,5.226 0.834,5.226 0.834,5.227C0.834,5.227 0.834,5.227 0.834,5.227C0.834,5.227 0.834,5.227 0.834,5.227C0.834,5.227 0.834,5.227 0.834,5.228C0.834,5.228 0.834,5.228 0.834,5.228C0.834,5.228 0.834,5.228 0.834,5.228C0.834,5.228 0.834,5.229 0.834,5.229C0.834,5.229 0.834,5.229 0.834,5.229C0.834,5.229 0.834,5.229 0.834,5.229C0.834,5.229 0.834,5.23 0.834,5.23C0.834,5.23 0.834,5.23 0.834,5.23C0.834,5.23 0.834,5.23 0.834,5.23C0.834,5.231 0.834,5.231 0.834,5.231C0.834,5.231 0.834,5.231 0.834,5.231C0.834,5.231 0.834,5.231 0.834,5.231C0.834,5.232 0.834,5.232 0.834,5.232C0.834,5.232 0.834,5.232 0.834,5.232C0.834,5.232 0.834,5.232 0.834,5.233C0.834,5.233 0.834,5.233 0.834,5.233C0.834,5.233 0.834,5.233 0.834,5.233C0.834,5.233 0.834,5.233 0.834,5.234C0.834,5.234 0.834,5.234 0.834,5.234C0.834,5.234 0.834,5.234 0.834,5.234C0.834,5.234 0.834,5.235 0.834,5.235C0.834,5.235 0.834,5.235 0.834,5.235C0.834,5.235 0.834,5.235 0.834,5.235C0.834,5.235 0.834,5.236 0.834,5.236C0.834,5.236 0.834,5.236 0.834,5.236C0.834,5.236 0.834,5.236 0.834,5.236C0.834,5.237 0.834,5.237 0.834,5.237C0.834,5.237 0.834,5.237 0.834,5.237C0.834,5.237 0.834,5.237 0.834,5.237C0.834,5.238 0.834,5.238 0.834,5.238C0.834,5.238 0.834,5.238 0.834,5.238C0.834,5.238 0.834,5.238 0.834,5.239C0.834,5.239 0.834,5.239 0.834,5.239C0.834,5.239 0.834,5.239 0.834,5.239C0.834,5.239 0.834,5.239 0.834,5.24C0.834,5.24 0.834,5.24 0.834,5.24C0.834,5.24 0.834,5.24 0.834,5.24C0.834,5.24 0.834,5.241 0.834,5.241C0.834,5.241 0.834,5.241 0.834,5.241C0.834,5.241 0.834,5.241 0.834,5.241C0.834,5.241 0.834,5.242 0.834,5.242C0.834,5.242 0.834,5.242 0.834,5.242C0.834,5.242 0.834,5.242 0.834,5.242C0.834,5.243 0.834,5.243 0.834,5.243C0.834,5.243 0.834,5.243 0.834,5.243C0.834,5.243 0.834,5.243 0.834,5.243C0.834,5.244 0.834,5.244 0.834,5.244C0.834,5.244 0.834,5.244 0.834,5.244C0.834,5.244 0.834,5.244 0.834,5.245C0.834,5.245 0.834,5.245 0.834,5.245C0.834,5.245 0.834,5.245 0.834,5.245C0.834,5.245 0.834,5.245 0.834,5.246C0.834,5.246 0.834,5.246 0.834,5.246C0.834,5.246 0.834,5.246 0.834,5.246C0.834,5.246 0.834,5.247 0.834,5.247C0.834,5.247 0.834,5.247 0.834,5.247C0.834,5.247 0.834,5.247 0.834,5.247C0.834,5.247 0.834,5.248 0.834,5.248C0.834,5.248 0.834,5.248 0.834,5.248C0.834,5.248 0.834,5.248 0.834,5.248C0.834,5.249 0.834,5.249 0.834,5.249C0.834,5.249 0.834,5.249 0.834,5.249C0.834,5.249 0.834,5.249 0.834,5.249C0.834,5.25 0.834,5.25 0.834,5.25C0.834,5.25 0.834,5.25 0.834,5.25C0.834,5.25 0.834,5.25 0.834,5.251C0.834,5.251 0.834,5.251 0.834,5.251C0.834,5.251 0.834,5.251 0.834,5.251C0.834,5.251 0.834,5.251 0.834,5.252C0.834,5.252 0.834,5.252 0.834,5.252C0.834,5.252 0.834,5.252 0.834,5.252C0.834,5.252 0.834,5.253 0.834,5.253C0.834,5.253 0.834,5.253 0.834,5.253C0.834,5.253 0.834,5.253 0.834,5.253C0.834,5.253 0.834,5.254 0.834,5.254C0.834,5.254 0.834,5.254 0.834,5.254C0.834,5.254 0.834,5.254 0.834,5.254C0.834,5.255 0.834,5.255 0.834,5.255C0.834,5.255 0.834,5.255 0.834,5.255C0.834,5.255 0.834,5.255 0.834,5.255C0.834,5.256 0.834,5.256 0.834,5.256C0.834,5.256 0.834,5.256 0.834,5.256C0.834,5.256 0.834,5.256 0.834,5.257C0.834,5.257 0.834,5.257 0.834,5.257C0.834,5.257 0.834,5.257 0.834,5.257C0.834,5.257 0.834,5.257 0.834,5.258C0.834,5.258 0.834,5.258 0.834,5.258C0.834,5.258 0.834,5.258 0.834,5.258C0.834,5.258 0.834,5.259 0.834,5.259C0.834,5.259 0.834,5.259 0.834,5.259C0.834,5.259 0.834,5.259 0.834,5.259C0.834,5.259 0.834,5.26 0.834,5.26C0.834,5.26 0.834,5.26 0.834,5.26C0.834,5.26 0.834,5.26 0.834,5.26C0.834,5.261 0.834,5.261 0.834,5.261C0.834,5.261 0.834,5.261 0.834,5.261C0.834,5.261 0.834,5.261 0.834,5.261C0.834,5.262 0.834,5.262 0.834,5.262C0.834,5.262 0.834,5.262 0.834,5.262C0.834,5.262 0.834,5.262 0.834,5.263C0.834,5.263 0.834,5.263 0.834,5.263C0.834,5.263 0.834,5.263 0.834,5.263C0.834,5.263 0.834,5.263 0.834,5.264C0.834,5.264 0.834,5.264 0.834,5.264C0.834,5.264 0.834,5.264 0.834,5.264C0.834,5.264 0.834,5.265 0.834,5.265C0.834,5.265 0.834,5.265 0.834,5.265C0.834,5.265 0.834,5.265 0.834,5.265C0.834,5.265 0.834,5.266 0.834,5.266C0.834,5.266 0.834,5.266 0.834,5.266C0.834,5.266 0.834,5.266 0.834,5.266C0.834,5.267 0.834,5.267 0.834,5.267C0.834,5.267 0.834,5.267 0.834,5.267C0.834,5.267 0.834,5.267 0.834,5.267C0.834,5.268 0.834,5.268 0.834,5.268C0.834,5.268 0.834,5.268 0.834,5.268C0.834,5.268 0.834,5.268 0.834,5.269C0.834,5.269 0.834,5.269 0.834,5.269C0.834,5.269 0.834,5.269 0.834,5.269C0.834,5.269 0.834,5.269 0.834,5.27C0.834,5.27 0.834,5.27 0.834,5.27C0.834,5.27 0.834,5.27 0.834,5.27C0.834,5.27 0.834,5.271 0.834,5.271C0.834,5.271 0.834,5.271 0.834,5.271C0.834,5.271 0.834,5.271 0.834,5.271C0.834,5.271 0.834,5.272 0.834,5.272C0.834,5.272 0.834,5.272 0.834,5.272C0.834,5.272 0.834,5.272 0.834,5.272C0.834,5.273 0.834,5.273 0.834,5.273C0.834,5.273 0.834,5.273 0.834,5.273C0.834,5.273 0.834,5.273 0.834,5.273C0.834,5.274 0.834,5.274 0.834,5.274C0.834,5.274 0.834,5.274 0.834,5.274C0.834,5.274 0.834,5.274 0.834,5.274C0.834,5.275 0.834,5.275 0.834,5.275C0.834,5.275 0.834,5.275 0.834,5.275C0.834,5.275 0.834,5.275 0.834,5.276C0.834,5.276 0.834,5.276 0.834,5.276C0.834,5.276 0.834,5.276 0.834,5.276C0.834,5.276 0.834,5.276 0.834,5.277C0.834,5.277 0.834,5.277 0.834,5.277C0.834,5.277 0.834,5.277 0.834,5.277C0.834,5.277 0.834,5.278 0.834,5.278C0.834,5.278 0.834,5.278 0.834,5.278C0.834,5.278 0.834,5.278 0.834,5.278C0.834,5.278 0.834,5.279 0.834,5.279C0.834,5.279 0.834,5.279 0.834,5.279C0.834,5.279 0.834,5.279 0.834,5.279C0.834,5.28 0.834,5.28 0.834,5.28C0.834,5.28 0.834,5.28 0.834,5.28C0.834,5.28 0.834,5.28 0.834,5.28C0.834,5.281 0.834,5.281 0.834,5.281C0.834,5.281 0.834,5.281 0.834,5.281C0.834,5.281 0.834,5.281 0.834,5.282C0.834,5.282 0.834,5.282 0.834,5.282C0.834,5.282 0.834,5.282 0.834,5.282C0.834,5.282 0.834,5.282 0.834,5.283C0.834,5.283 0.834,5.283 0.834,5.283C0.834,5.283 0.834,5.283 0.834,5.283C0.834,5.283 0.834,5.284 0.834,5.284C0.834,5.284 0.834,5.284 0.834,5.284C0.834,5.284 0.834,5.284 0.834,5.284C0.834,5.284 0.834,5.285 0.834,5.285C0.834,5.285 0.834,5.285 0.834,5.285C0.834,5.285 0.834,5.285 0.834,5.285C0.834,5.286 0.834,5.286 0.834,5.286C0.834,5.286 0.834,5.286 0.834,5.286C0.834,5.286 0.834,5.286 0.834,5.286C0.834,5.287 0.834,5.287 0.834,5.287C0.834,5.287 0.834,5.287 0.834,5.287C0.834,5.287 0.834,5.287 0.834,5.288C0.834,5.288 0.834,5.288 0.834,5.288C0.834,5.288 0.834,5.288 0.834,5.288C0.834,5.288 0.834,5.288 0.834,5.289C0.834,5.289 0.834,5.289 0.834,5.289C0.834,5.289 0.834,5.289 0.834,5.289C0.834,5.289 0.834,5.29 0.834,5.29C0.834,5.29 0.834,5.29 0.834,5.29C0.834,5.29 0.834,5.29 0.834,5.29C0.834,5.29 0.834,5.291 0.834,5.291C0.834,5.291 0.834,5.291 0.834,5.291C0.834,5.291 0.834,5.291 0.834,5.291C0.834,5.292 0.834,5.292 0.834,5.292C0.834,5.292 0.834,5.292 0.834,5.292C0.834,5.292 0.834,5.292 0.834,5.292C0.834,5.293 0.834,5.293 0.834,5.293C0.834,5.293 0.834,5.293 0.834,5.293C0.834,5.293 0.834,5.293 0.834,5.294C0.834,5.294 0.834,5.294 0.834,5.294C0.834,5.294 0.834,5.294 0.834,5.294C0.834,5.294 0.834,5.294 0.834,5.295C0.834,5.295 0.834,5.295 0.834,5.295C0.834,5.295 0.834,5.295 0.834,5.295C0.834,5.295 0.834,5.296 0.834,5.296C0.834,5.296 0.834,5.296 0.834,5.296C0.834,5.296 0.834,5.296 0.834,5.296C0.834,5.296 0.834,5.297 0.834,5.297C0.834,5.297 0.834,5.297 0.834,5.297C0.834,5.297 0.834,5.297 0.834,5.297C0.834,5.298 0.834,5.298 0.834,5.298C0.834,5.298 0.834,5.298 0.834,5.298C0.834,5.298 0.834,5.298 0.834,5.298C0.834,5.299 0.834,5.299 0.834,5.299C0.834,5.299 0.834,5.299 0.834,5.299C0.834,5.299 0.834,5.299 0.834,5.3C0.834,5.3 0.834,5.3 0.834,5.3C0.834,5.3 0.834,5.3 0.834,5.3C0.834,5.3 0.834,5.3 0.834,5.301C0.834,5.301 0.834,5.301 0.834,5.301C0.834,5.301 0.834,5.301 0.834,5.301C0.834,5.301 0.834,5.302 0.834,5.302C0.834,5.302 0.834,5.302 0.834,5.302C0.834,5.302 0.834,5.302 0.834,5.302C0.834,5.302 0.834,5.303 0.834,5.303C0.834,5.303 0.834,5.303 0.834,5.303C0.834,5.303 0.834,5.303 0.834,5.303C0.834,5.304 0.834,5.304 0.834,5.304C0.834,5.304 0.834,5.304 0.834,5.304C0.834,5.304 0.834,5.304 0.834,5.304C0.834,5.305 0.834,5.305 0.834,5.305L2.834,5.305C2.834,5.305 2.834,5.305 2.834,5.304C2.834,5.304 2.834,5.304 2.834,5.304C2.834,5.304 2.834,5.304 2.834,5.304C2.834,5.304 2.834,5.304 2.834,5.303C2.834,5.303 2.834,5.303 2.834,5.303C2.834,5.303 2.834,5.303 2.834,5.303C2.834,5.303 2.834,5.302 2.834,5.302C2.834,5.302 2.834,5.302 2.834,5.302C2.834,5.302 2.834,5.302 2.834,5.302C2.834,5.302 2.834,5.301 2.834,5.301C2.834,5.301 2.834,5.301 2.834,5.301C2.834,5.301 2.834,5.301 2.834,5.301C2.834,5.3 2.834,5.3 2.834,5.3C2.834,5.3 2.834,5.3 2.834,5.3C2.834,5.3 2.834,5.3 2.834,5.3C2.834,5.299 2.834,5.299 2.834,5.299C2.834,5.299 2.834,5.299 2.834,5.299C2.834,5.299 2.834,5.299 2.834,5.298C2.834,5.298 2.834,5.298 2.834,5.298C2.834,5.298 2.834,5.298 2.834,5.298C2.834,5.298 2.834,5.298 2.834,5.297C2.834,5.297 2.834,5.297 2.834,5.297C2.834,5.297 2.834,5.297 2.834,5.297C2.834,5.297 2.834,5.296 2.834,5.296C2.834,5.296 2.834,5.296 2.834,5.296C2.834,5.296 2.834,5.296 2.834,5.296C2.834,5.296 2.834,5.295 2.834,5.295C2.834,5.295 2.834,5.295 2.834,5.295C2.834,5.295 2.834,5.295 2.834,5.295C2.834,5.294 2.834,5.294 2.834,5.294C2.834,5.294 2.834,5.294 2.834,5.294C2.834,5.294 2.834,5.294 2.834,5.294C2.834,5.293 2.834,5.293 2.834,5.293C2.834,5.293 2.834,5.293 2.834,5.293C2.834,5.293 2.834,5.293 2.834,5.292C2.834,5.292 2.834,5.292 2.834,5.292C2.834,5.292 2.834,5.292 2.834,5.292C2.834,5.292 2.834,5.292 2.834,5.291C2.834,5.291 2.834,5.291 2.834,5.291C2.834,5.291 2.834,5.291 2.834,5.291C2.834,5.291 2.834,5.29 2.834,5.29C2.834,5.29 2.834,5.29 2.834,5.29C2.834,5.29 2.834,5.29 2.834,5.29C2.834,5.29 2.834,5.289 2.834,5.289C2.834,5.289 2.834,5.289 2.834,5.289C2.834,5.289 2.834,5.289 2.834,5.289C2.834,5.288 2.834,5.288 2.834,5.288C2.834,5.288 2.834,5.288 2.834,5.288C2.834,5.288 2.834,5.288 2.834,5.288C2.834,5.287 2.834,5.287 2.834,5.287C2.834,5.287 2.834,5.287 2.834,5.287C2.834,5.287 2.834,5.287 2.834,5.286C2.834,5.286 2.834,5.286 2.834,5.286C2.834,5.286 2.834,5.286 2.834,5.286C2.834,5.286 2.834,5.286 2.834,5.285C2.834,5.285 2.834,5.285 2.834,5.285C2.834,5.285 2.834,5.285 2.834,5.285C2.834,5.285 2.834,5.284 2.834,5.284C2.834,5.284 2.834,5.284 2.834,5.284C2.834,5.284 2.834,5.284 2.834,5.284C2.834,5.284 2.834,5.283 2.834,5.283C2.834,5.283 2.834,5.283 2.834,5.283C2.834,5.283 2.834,5.283 2.834,5.283C2.834,5.282 2.834,5.282 2.834,5.282C2.834,5.282 2.834,5.282 2.834,5.282C2.834,5.282 2.834,5.282 2.834,5.282C2.834,5.281 2.834,5.281 2.834,5.281C2.834,5.281 2.834,5.281 2.834,5.281C2.834,5.281 2.834,5.281 2.834,5.28C2.834,5.28 2.834,5.28 2.834,5.28C2.834,5.28 2.834,5.28 2.834,5.28C2.834,5.28 2.834,5.28 2.834,5.279C2.834,5.279 2.834,5.279 2.834,5.279C2.834,5.279 2.834,5.279 2.834,5.279C2.834,5.279 2.834,5.278 2.834,5.278C2.834,5.278 2.834,5.278 2.834,5.278C2.834,5.278 2.834,5.278 2.834,5.278C2.834,5.278 2.834,5.277 2.834,5.277C2.834,5.277 2.834,5.277 2.834,5.277C2.834,5.277 2.834,5.277 2.834,5.277C2.834,5.276 2.834,5.276 2.834,5.276C2.834,5.276 2.834,5.276 2.834,5.276C2.834,5.276 2.834,5.276 2.834,5.276C2.834,5.275 2.834,5.275 2.834,5.275C2.834,5.275 2.834,5.275 2.834,5.275C2.834,5.275 2.834,5.275 2.834,5.274C2.834,5.274 2.834,5.274 2.834,5.274C2.834,5.274 2.834,5.274 2.834,5.274C2.834,5.274 2.834,5.274 2.834,5.273C2.834,5.273 2.834,5.273 2.834,5.273C2.834,5.273 2.834,5.273 2.834,5.273C2.834,5.273 2.834,5.273 2.834,5.272C2.834,5.272 2.834,5.272 2.834,5.272C2.834,5.272 2.834,5.272 2.834,5.272C2.834,5.272 2.834,5.271 2.834,5.271C2.834,5.271 2.834,5.271 2.834,5.271C2.834,5.271 2.834,5.271 2.834,5.271C2.834,5.271 2.834,5.27 2.834,5.27C2.834,5.27 2.834,5.27 2.834,5.27C2.834,5.27 2.834,5.27 2.834,5.27C2.834,5.269 2.834,5.269 2.834,5.269C2.834,5.269 2.834,5.269 2.834,5.269C2.834,5.269 2.834,5.269 2.834,5.269C2.834,5.268 2.834,5.268 2.834,5.268C2.834,5.268 2.834,5.268 2.834,5.268C2.834,5.268 2.834,5.268 2.834,5.267C2.834,5.267 2.834,5.267 2.834,5.267C2.834,5.267 2.834,5.267 2.834,5.267C2.834,5.267 2.834,5.267 2.834,5.266C2.834,5.266 2.834,5.266 2.834,5.266C2.834,5.266 2.834,5.266 2.834,5.266C2.834,5.266 2.834,5.265 2.834,5.265C2.834,5.265 2.834,5.265 2.834,5.265C2.834,5.265 2.834,5.265 2.834,5.265C2.834,5.265 2.834,5.264 2.834,5.264C2.834,5.264 2.834,5.264 2.834,5.264C2.834,5.264 2.834,5.264 2.834,5.264C2.834,5.263 2.834,5.263 2.834,5.263C2.834,5.263 2.834,5.263 2.834,5.263C2.834,5.263 2.834,5.263 2.834,5.263C2.834,5.262 2.834,5.262 2.834,5.262C2.834,5.262 2.834,5.262 2.834,5.262C2.834,5.262 2.834,5.262 2.834,5.261C2.834,5.261 2.834,5.261 2.834,5.261C2.834,5.261 2.834,5.261 2.834,5.261C2.834,5.261 2.834,5.261 2.834,5.26C2.834,5.26 2.834,5.26 2.834,5.26C2.834,5.26 2.834,5.26 2.834,5.26C2.834,5.26 2.834,5.259 2.834,5.259C2.834,5.259 2.834,5.259 2.834,5.259C2.834,5.259 2.834,5.259 2.834,5.259C2.834,5.259 2.834,5.258 2.834,5.258C2.834,5.258 2.834,5.258 2.834,5.258C2.834,5.258 2.834,5.258 2.834,5.258C2.834,5.257 2.834,5.257 2.834,5.257C2.834,5.257 2.834,5.257 2.834,5.257C2.834,5.257 2.834,5.257 2.834,5.257C2.834,5.256 2.834,5.256 2.834,5.256C2.834,5.256 2.834,5.256 2.834,5.256C2.834,5.256 2.834,5.256 2.834,5.255C2.834,5.255 2.834,5.255 2.834,5.255C2.834,5.255 2.834,5.255 2.834,5.255C2.834,5.255 2.834,5.255 2.834,5.254C2.834,5.254 2.834,5.254 2.834,5.254C2.834,5.254 2.834,5.254 2.834,5.254C2.834,5.254 2.834,5.253 2.834,5.253C2.834,5.253 2.834,5.253 2.834,5.253C2.834,5.253 2.834,5.253 2.834,5.253C2.834,5.253 2.834,5.252 2.834,5.252C2.834,5.252 2.834,5.252 2.834,5.252C2.834,5.252 2.834,5.252 2.834,5.252C2.834,5.251 2.834,5.251 2.834,5.251C2.834,5.251 2.834,5.251 2.834,5.251C2.834,5.251 2.834,5.251 2.834,5.251C2.834,5.25 2.834,5.25 2.834,5.25C2.834,5.25 2.834,5.25 2.834,5.25C2.834,5.25 2.834,5.25 2.834,5.249C2.834,5.249 2.834,5.249 2.834,5.249C2.834,5.249 2.834,5.249 2.834,5.249C2.834,5.249 2.834,5.249 2.834,5.248C2.834,5.248 2.834,5.248 2.834,5.248C2.834,5.248 2.834,5.248 2.834,5.248C2.834,5.248 2.834,5.247 2.834,5.247C2.834,5.247 2.834,5.247 2.834,5.247C2.834,5.247 2.834,5.247 2.834,5.247C2.834,5.247 2.834,5.246 2.834,5.246C2.834,5.246 2.834,5.246 2.834,5.246C2.834,5.246 2.834,5.246 2.834,5.246C2.834,5.245 2.834,5.245 2.834,5.245C2.834,5.245 2.834,5.245 2.834,5.245C2.834,5.245 2.834,5.245 2.834,5.245C2.834,5.244 2.834,5.244 2.834,5.244C2.834,5.244 2.834,5.244 2.834,5.244C2.834,5.244 2.834,5.244 2.834,5.243C2.834,5.243 2.834,5.243 2.834,5.243C2.834,5.243 2.834,5.243 2.834,5.243C2.834,5.243 2.834,5.243 2.834,5.242C2.834,5.242 2.834,5.242 2.834,5.242C2.834,5.242 2.834,5.242 2.834,5.242C2.834,5.242 2.834,5.241 2.834,5.241C2.834,5.241 2.834,5.241 2.834,5.241C2.834,5.241 2.834,5.241 2.834,5.241C2.834,5.241 2.834,5.24 2.834,5.24C2.834,5.24 2.834,5.24 2.834,5.24C2.834,5.24 2.834,5.24 2.834,5.24C2.834,5.239 2.834,5.239 2.834,5.239C2.834,5.239 2.834,5.239 2.834,5.239C2.834,5.239 2.834,5.239 2.834,5.239C2.834,5.238 2.834,5.238 2.834,5.238C2.834,5.238 2.834,5.238 2.834,5.238C2.834,5.238 2.834,5.238 2.834,5.237C2.834,5.237 2.834,5.237 2.834,5.237C2.834,5.237 2.834,5.237 2.834,5.237C2.834,5.237 2.834,5.237 2.834,5.236C2.834,5.236 2.834,5.236 2.834,5.236C2.834,5.236 2.834,5.236 2.834,5.236C2.834,5.236 2.834,5.235 2.834,5.235C2.834,5.235 2.834,5.235 2.834,5.235C2.834,5.235 2.834,5.235 2.834,5.235C2.834,5.235 2.834,5.234 2.834,5.234C2.834,5.234 2.834,5.234 2.834,5.234C2.834,5.234 2.834,5.234 2.834,5.234C2.834,5.233 2.834,5.233 2.834,5.233C2.834,5.233 2.834,5.233 2.834,5.233C2.834,5.233 2.834,5.233 2.834,5.233C2.834,5.232 2.834,5.232 2.834,5.232C2.834,5.232 2.834,5.232 2.834,5.232C2.834,5.232 2.834,5.232 2.834,5.231C2.834,5.231 2.834,5.231 2.834,5.231C2.834,5.231 2.834,5.231 2.834,5.231C2.834,5.231 2.834,5.231 2.834,5.23C2.834,5.23 2.834,5.23 2.834,5.23C2.834,5.23 2.834,5.23 2.834,5.23C2.834,5.23 2.834,5.229 2.834,5.229C2.834,5.229 2.834,5.229 2.834,5.229C2.834,5.229 2.834,5.229 2.834,5.229C2.834,5.229 2.834,5.228 2.834,5.228C2.834,5.228 2.834,5.228 2.834,5.228C2.834,5.228 2.834,5.228 2.834,5.228C2.834,5.227 2.834,5.227 2.834,5.227C2.834,5.227 2.834,5.227 2.834,5.227C2.834,5.227 2.834,5.227 2.834,5.227C2.834,5.226 2.834,5.226 2.834,5.226C2.834,5.226 2.834,5.226 2.834,5.226C2.834,5.226 2.834,5.226 2.834,5.225C2.834,5.225 2.834,5.225 2.834,5.225C2.834,5.225 2.834,5.225 2.834,5.225C2.834,5.225 2.834,5.225 2.834,5.224C2.834,5.224 2.834,5.224 2.834,5.224C2.834,5.224 2.834,5.224 2.834,5.224C2.834,5.224 2.834,5.223 2.834,5.223C2.834,5.223 2.834,5.223 2.834,5.223C2.834,5.223 2.834,5.223 2.834,5.223C2.834,5.223 2.834,5.222 2.834,5.222C2.834,5.222 2.834,5.222 2.834,5.222C2.834,5.222 2.834,5.222 2.834,5.222C2.834,5.221 2.834,5.221 2.834,5.221C2.834,5.221 2.834,5.221 2.834,5.221C2.834,5.221 2.834,5.221 2.834,5.221C2.834,5.22 2.834,5.22 2.834,5.22C2.834,5.22 2.834,5.22 2.834,5.22C2.834,5.22 2.834,5.22 2.834,5.219C2.834,5.219 2.834,5.219 2.834,5.219C2.834,5.219 2.834,5.219 2.834,5.219C2.834,5.219 2.834,5.219 2.834,5.218C2.834,5.218 2.834,5.218 2.834,5.218C2.834,5.218 2.834,5.218 2.834,5.218C2.834,5.218 2.834,5.217 2.834,5.217C2.834,5.217 2.834,5.217 2.834,5.217C2.834,5.217 2.834,5.217 2.834,5.217C2.834,5.217 2.834,5.216 2.834,5.216C2.834,5.216 2.834,5.216 2.834,5.216C2.834,5.216 2.834,5.216 2.834,5.216C2.834,5.215 2.834,5.215 2.834,5.215C2.834,5.215 2.834,5.215 2.834,5.215C2.834,5.215 2.834,5.215 2.834,5.215C2.834,5.214 2.834,5.214 2.834,5.214C2.834,5.214 2.834,5.214 2.834,5.214C2.834,5.214 2.834,5.214 2.834,5.213C2.834,5.213 2.834,5.213 2.834,5.213C2.834,5.213 2.834,5.213 2.834,5.213C2.834,5.213 2.834,5.213 2.834,5.212C2.834,5.212 2.834,5.212 2.834,5.212C2.834,5.212 2.834,5.212 2.834,5.212C2.834,5.212 2.834,5.211 2.834,5.211C2.834,5.211 2.834,5.211 2.834,5.211C2.834,5.211 2.834,5.211 2.834,5.211C2.834,5.211 2.834,5.21 2.834,5.21C2.834,5.21 2.834,5.21 2.834,5.21C2.834,5.21 2.834,5.21 2.834,5.21C2.834,5.209 2.834,5.209 2.834,5.209C2.834,5.209 2.834,5.209 2.834,5.209C2.834,5.209 2.834,5.209 2.834,5.209C2.834,5.208 2.834,5.208 2.834,5.208C2.834,5.208 2.834,5.208 2.834,5.208C2.834,5.208 2.834,5.208 2.834,5.208C2.834,5.207 2.834,5.207 2.834,5.207C2.834,5.207 2.834,5.207 2.834,5.207C2.834,5.207 2.834,5.207 2.834,5.206C2.834,5.206 2.834,5.206 2.834,5.206C2.834,5.206 2.834,5.206 2.834,5.206C2.834,5.206 2.834,5.206 2.834,5.205C2.834,5.205 2.834,5.205 2.834,5.205C2.834,5.205 2.834,5.205 2.834,5.205C2.834,5.205 2.834,5.204 2.834,5.204C2.834,5.204 2.834,5.204 2.834,5.204C2.834,5.204 2.834,5.204 2.834,5.204C2.834,5.204 2.834,5.203 2.834,5.203C2.834,5.203 2.834,5.203 2.834,5.203C2.834,5.203 2.834,5.203 2.834,5.203C2.834,5.202 2.834,5.202 2.834,5.202C2.834,5.202 2.834,5.202 2.834,5.202C2.834,5.202 2.834,5.202 2.834,5.202C2.834,5.201 2.834,5.201 2.834,5.201C2.834,5.201 2.834,5.201 2.834,5.201C2.834,5.201 2.834,5.201 2.834,5.2C2.834,5.2 2.834,5.2 2.834,5.2C2.834,5.2 2.834,5.2 2.834,5.2C2.834,5.2 2.834,5.2 2.834,5.199C2.834,5.199 2.834,5.199 2.834,5.199C2.834,5.199 2.834,5.199 2.834,5.199C2.834,5.199 2.834,5.198 2.834,5.198C2.834,5.198 2.834,5.198 2.834,5.198C2.834,5.198 2.834,5.198 2.834,5.198C2.834,5.198 2.834,5.197 2.834,5.197C2.834,5.197 2.834,5.197 2.834,5.197C2.834,5.197 2.834,5.197 2.834,5.197C2.834,5.196 2.834,5.196 2.834,5.196C2.834,5.196 2.834,5.196 2.834,5.196C2.834,5.196 2.834,5.196 2.834,5.196C2.834,5.195 2.834,5.195 2.834,5.195C2.834,5.195 2.834,5.195 2.834,5.195C2.834,5.195 2.834,5.195 2.834,5.194C2.834,5.194 2.834,5.194 2.834,5.194C2.834,5.194 2.834,5.194 2.834,5.194C2.834,5.194 2.834,5.194 2.834,5.193C2.834,5.193 2.834,5.193 2.834,5.193C2.834,5.193 2.834,5.193 2.834,5.193C2.834,5.193 2.834,5.192 2.834,5.192C2.834,5.192 2.834,5.192 2.834,5.192C2.834,5.192 2.834,5.192 2.834,5.192C2.834,5.192 2.834,5.191 2.834,5.191C2.834,5.191 2.834,5.191 2.834,5.191C2.834,5.191 2.834,5.191 2.834,5.191C2.834,5.19 2.834,5.19 2.834,5.19C2.834,5.19 2.834,5.19 2.834,5.19C2.834,5.19 2.834,5.19 2.834,5.19C2.834,5.189 2.834,5.189 2.834,5.189C2.834,5.189 2.834,5.189 2.834,5.189C2.834,5.189 2.834,5.189 2.834,5.188C2.834,5.188 2.834,5.188 2.834,5.188C2.834,5.188 2.834,5.188 2.834,5.188C2.834,5.188 2.834,5.188 2.834,5.187C2.834,5.187 2.834,5.187 2.834,5.187C2.834,5.187 2.834,5.187 2.834,5.187C2.834,5.187 2.834,5.186 2.834,5.186C2.834,5.186 2.834,5.186 2.834,5.186C2.834,5.186 2.834,5.186 2.834,5.186C2.834,5.186 2.834,5.185 2.834,5.185C2.834,5.185 2.834,5.185 2.834,5.185C2.834,5.185 2.834,5.185 2.834,5.185C2.834,5.184 2.834,5.184 2.834,5.184C2.834,5.184 2.834,5.184 2.834,5.184C2.834,5.184 2.834,5.184 2.834,5.184C2.834,5.183 2.834,5.183 2.834,5.183C2.834,5.183 2.834,5.183 2.834,5.183C2.834,5.183 2.834,5.183 2.834,5.182C2.834,5.182 2.834,5.182 2.834,5.182C2.834,5.182 2.834,5.182 2.834,5.182C2.834,5.182 2.834,5.182 2.834,5.181C2.834,5.181 2.834,5.181 2.834,5.181C2.834,5.181 2.834,5.181 2.834,5.181C2.834,5.181 2.834,5.18 2.834,5.18C2.834,5.18 2.834,5.18 2.834,5.18C2.834,5.18 2.834,5.18 2.834,5.18C2.834,5.18 2.834,5.179 2.834,5.179C2.834,5.179 2.834,5.179 2.834,5.179C2.834,5.179 2.834,5.179 2.834,5.179C2.834,5.178 2.834,5.178 2.834,5.178C2.834,5.178 2.834,5.178 2.834,5.178C2.834,5.178 2.834,5.178 2.834,5.178C2.834,5.177 2.834,5.177 2.834,5.177C2.834,5.177 2.834,5.177 2.834,5.177C2.834,5.177 2.834,5.177 2.834,5.176C2.834,5.176 2.834,5.176 2.834,5.176C2.834,5.176 2.834,5.176 2.834,5.176C2.834,5.176 2.834,5.176 2.834,5.175C2.834,5.175 2.834,5.175 2.834,5.175C2.834,5.175 2.834,5.175 2.834,5.175C2.834,5.175 2.834,5.174 2.834,5.174C2.834,5.174 2.834,5.174 2.834,5.174C2.834,5.174 2.834,5.174 2.834,5.174C2.834,5.174 2.834,5.173 2.834,5.173C2.834,5.173 2.834,5.173 2.834,5.173C2.834,5.173 2.834,5.173 2.834,5.173C2.834,5.172 2.834,5.172 2.834,5.172C2.834,5.172 2.834,5.172 2.834,5.172C2.834,5.172 2.834,5.172 2.834,5.172C2.834,5.171 2.834,5.171 2.834,5.171C2.834,5.171 2.834,5.171 2.834,5.171C2.834,5.171 2.834,5.171 2.834,5.17C2.834,5.17 2.834,5.17 2.834,5.17C2.834,5.17 2.834,5.17 2.834,5.17C2.834,5.17 2.834,5.17 2.834,5.169C2.834,5.169 2.834,5.169 2.834,5.169C2.834,5.169 2.834,5.169 2.834,5.169C2.834,5.169 2.834,5.168 2.834,5.168C2.834,5.168 2.834,5.168 2.834,5.168C2.834,5.168 2.834,5.168 2.834,5.168C2.834,5.168 2.834,5.167 2.834,5.167C2.834,5.167 2.834,5.167 2.834,5.167C2.834,5.167 2.834,5.167 2.834,5.167C2.834,5.166 2.834,5.166 2.834,5.166C2.834,5.166 2.834,5.166 2.834,5.166C2.834,5.166 2.834,5.166 2.834,5.166C2.834,5.165 2.834,5.165 2.834,5.165C2.834,5.165 2.834,5.165 2.834,5.165C2.834,5.165 2.834,5.165 2.834,5.164C2.834,5.164 2.834,5.164 2.834,5.164C2.834,5.164 2.834,5.164 2.834,5.164C2.834,5.164 2.834,5.164 2.834,5.163C2.834,5.163 2.834,5.163 2.834,5.163C2.834,5.163 2.834,5.163 2.834,5.163C2.834,5.163 2.834,5.162 2.834,5.162C2.834,5.162 2.834,5.162 2.834,5.162C2.834,5.162 2.834,5.162 2.834,5.162C2.834,5.162 2.834,5.161 2.834,5.161C2.834,5.161 2.834,5.161 2.834,5.161C2.834,5.161 2.834,5.161 2.834,5.161C2.834,5.16 2.834,5.16 2.834,5.16C2.834,5.16 2.834,5.16 2.834,5.16C2.834,5.16 2.834,5.16 2.834,5.16C2.834,5.159 2.834,5.159 2.834,5.159C2.834,5.159 2.834,5.159 2.834,5.159C2.834,5.159 2.834,5.159 2.834,5.158C2.834,5.158 2.834,5.158 2.834,5.158C2.834,5.158 2.834,5.158 2.834,5.158C2.834,5.158 2.834,5.158 2.834,5.157C2.834,5.157 2.834,5.157 2.834,5.157C2.834,5.157 2.834,5.157 2.834,5.157C2.834,5.157 2.834,5.156 2.834,5.156C2.834,5.156 2.834,5.156 2.834,5.156C2.834,5.156 2.834,5.156 2.834,5.156C2.834,5.156 2.834,5.155 2.834,5.155C2.834,5.155 2.834,5.155 2.834,5.155C2.834,5.155 2.834,5.155 2.834,5.155C2.834,5.154 2.834,5.154 2.834,5.154C2.834,5.154 2.834,5.154 2.834,5.154C2.834,5.154 2.834,5.154 2.834,5.154C2.834,5.153 2.834,5.153 2.834,5.153C2.834,5.153 2.834,5.153 2.834,5.153C2.834,5.153 2.834,5.153 2.834,5.152C2.834,5.152 2.834,5.152 2.834,5.152C2.834,5.152 2.834,5.152 2.834,5.152C2.834,5.152 2.834,5.152 2.834,5.151C2.834,5.151 2.834,5.151 2.834,5.151C2.834,5.151 2.834,5.151 2.834,5.151C2.834,5.151 2.834,5.15 2.834,5.15C2.834,5.15 2.834,5.15 2.834,5.15C2.834,5.15 2.834,5.15 2.834,5.15C2.834,5.15 2.834,5.149 2.834,5.149C2.834,5.149 2.834,5.149 2.834,5.149C2.834,5.149 2.834,5.149 2.834,5.149C2.834,5.148 2.834,5.148 2.834,5.148C2.834,5.148 2.834,5.148 2.834,5.148C2.834,5.148 2.834,5.148 2.834,5.148C2.834,5.147 2.834,5.147 2.834,5.147C2.834,5.147 2.834,5.147 2.834,5.147C2.834,5.147 2.834,5.147 2.834,5.146C2.834,5.146 2.834,5.146 2.834,5.146C2.834,5.146 2.834,5.146 2.834,5.146C2.834,5.146 2.834,5.146 2.834,5.145C2.834,5.145 2.834,5.145 2.834,5.145C2.834,5.145 2.834,5.145 2.834,5.145C2.834,5.145 2.834,5.144 2.834,5.144C2.834,5.144 2.834,5.144 2.834,5.144C2.834,5.144 2.834,5.144 2.834,5.144C2.834,5.144 2.834,5.143 2.834,5.143C2.834,5.143 2.834,5.143 2.834,5.143C2.834,5.143 2.834,5.143 2.834,5.143C2.834,5.142 2.834,5.142 2.834,5.142C2.834,5.142 2.834,5.142 2.834,5.142C2.834,5.142 2.834,5.142 2.834,5.142C2.834,5.141 2.834,5.141 2.834,5.141C2.834,5.141 2.834,5.141 2.834,5.141C2.834,5.141 2.834,5.141 2.834,5.141C2.834,5.14 2.834,5.14 2.834,5.14C2.834,5.14 2.834,5.14 2.834,5.14C2.834,5.14 2.834,5.14 2.834,5.139C2.834,5.139 2.834,5.139 2.834,5.139C2.834,5.139 2.834,5.139 2.834,5.139C2.834,5.139 2.834,5.139 2.834,5.138C2.834,5.138 2.834,5.138 2.834,5.138C2.834,5.138 2.834,5.138 2.834,5.138C2.834,5.138 2.834,5.137 2.834,5.137C2.834,5.137 2.834,5.137 2.834,5.137C2.834,5.137 2.834,5.137 2.834,5.137C2.834,5.137 2.834,5.136 2.834,5.136C2.834,5.136 2.834,5.136 2.834,5.136C2.834,5.136 2.834,5.136 2.834,5.136C2.834,5.135 2.834,5.135 2.834,5.135C2.834,5.135 2.834,5.135 2.834,5.135C2.834,5.135 2.834,5.135 2.834,5.135C2.834,5.134 2.834,5.134 2.834,5.134C2.834,5.134 2.834,5.134 2.834,5.134C2.834,5.134 2.834,5.134 2.834,5.133C2.834,5.133 2.834,5.133 2.834,5.133C2.834,5.133 2.834,5.133 2.834,5.133C2.834,5.133 2.834,5.133 2.834,5.132C2.834,5.132 2.834,5.132 2.834,5.132C2.834,5.132 2.834,5.132 2.834,5.132C2.834,5.132 2.834,5.131 2.834,5.131C2.834,5.131 2.834,5.131 2.834,5.131C2.834,5.131 2.834,5.131 2.834,5.131C2.834,5.131 2.834,5.13 2.834,5.13C2.834,5.13 2.834,5.13 2.834,5.13C2.834,5.13 2.834,5.13 2.834,5.13C2.834,5.129 2.834,5.129 2.834,5.129C2.834,5.129 2.834,5.129 2.834,5.129C2.834,5.129 2.834,5.129 2.834,5.129C2.834,5.128 2.834,5.128 2.834,5.128C2.834,5.128 2.834,5.128 2.834,5.128C2.834,5.128 2.834,5.128 2.834,5.127C2.834,5.127 2.834,5.127 2.834,5.127C2.834,5.127 2.834,5.127 2.834,5.127C2.834,5.127 2.834,5.127 2.834,5.126C2.834,5.126 2.834,5.126 2.834,5.126C2.834,5.126 2.834,5.126 2.834,5.126C2.834,5.126 2.834,5.125 2.834,5.125C2.834,5.125 2.834,5.125 2.834,5.125C2.834,5.125 2.834,5.125 2.834,5.125C2.834,5.125 2.834,5.124 2.834,5.124L0.834,5.124ZM0.834,5.305C0.834,5.276 0.836,5.248 0.838,5.22C0.841,5.192 0.845,5.167 0.85,5.144C0.858,5.1 0.868,5.069 0.87,5.063C0.87,5.062 0.871,5.061 0.87,5.062C0.87,5.063 0.87,5.063 0.87,5.065C0.869,5.066 0.869,5.067 0.868,5.069C0.866,5.076 0.861,5.09 0.856,5.108C0.845,5.144 0.831,5.199 0.82,5.267L2.797,5.571C2.79,5.618 2.78,5.654 2.775,5.672C2.772,5.68 2.771,5.686 2.771,5.684C2.772,5.681 2.771,5.683 2.773,5.678C2.774,5.674 2.776,5.669 2.778,5.663C2.795,5.608 2.834,5.477 2.834,5.305L0.834,5.305ZM0.82,5.267C0.825,5.236 0.831,5.212 0.834,5.2C0.836,5.189 0.839,5.181 0.836,5.189C0.835,5.193 0.83,5.212 0.825,5.234C0.819,5.258 0.811,5.293 0.804,5.336L2.781,5.64C2.776,5.671 2.771,5.695 2.768,5.707C2.765,5.718 2.763,5.726 2.765,5.718C2.766,5.715 2.771,5.695 2.777,5.673C2.783,5.649 2.791,5.614 2.797,5.571L0.82,5.267ZM0.804,5.336C0.821,5.225 0.855,5.138 0.883,5.081C0.896,5.053 0.908,5.032 0.916,5.018C0.924,5.004 0.931,4.995 0.931,4.994C0.931,4.993 0.932,4.993 0.93,4.995C0.929,4.997 0.926,5.001 0.923,5.006C0.917,5.015 0.906,5.033 0.893,5.055C0.868,5.098 0.827,5.174 0.795,5.275L2.699,5.887C2.672,5.971 2.639,6.031 2.623,6.059C2.614,6.074 2.608,6.084 2.606,6.086C2.606,6.087 2.605,6.088 2.607,6.086C2.607,6.085 2.61,6.081 2.613,6.077C2.621,6.063 2.655,6.012 2.687,5.944C2.722,5.872 2.761,5.769 2.781,5.64L0.804,5.336ZM0.795,5.275C0.769,5.356 0.758,5.424 0.755,5.447C0.752,5.461 0.751,5.473 0.75,5.475C0.75,5.48 0.75,5.476 0.751,5.469C0.753,5.46 0.76,5.411 0.78,5.349C0.799,5.285 0.84,5.178 0.926,5.063L2.526,6.263C2.62,6.138 2.666,6.018 2.69,5.941C2.713,5.865 2.724,5.802 2.727,5.778C2.73,5.764 2.731,5.752 2.732,5.75C2.732,5.744 2.732,5.749 2.731,5.755C2.729,5.764 2.721,5.818 2.699,5.887L0.795,5.275ZM0.926,5.063C0.785,5.251 0.734,5.459 0.743,5.43L2.652,6.027C2.654,6.021 2.655,6.015 2.656,6.014C2.657,6.011 2.656,6.012 2.656,6.014C2.654,6.019 2.648,6.037 2.639,6.061C2.616,6.118 2.581,6.19 2.526,6.263L0.926,5.063ZM0.743,5.43C0.729,5.475 0.719,5.515 0.713,5.539C0.71,5.551 0.707,5.563 0.705,5.57C0.703,5.578 0.702,5.582 0.702,5.586C0.7,5.592 0.702,5.584 0.707,5.569C0.712,5.554 0.722,5.525 0.739,5.49L2.543,6.353C2.603,6.227 2.631,6.114 2.643,6.067C2.646,6.054 2.649,6.041 2.651,6.033C2.653,6.024 2.654,6.019 2.655,6.015C2.657,6.007 2.656,6.014 2.652,6.027L0.743,5.43ZM0.739,5.49C0.747,5.472 0.753,5.462 0.749,5.468C0.747,5.472 0.745,5.475 0.74,5.484C0.735,5.492 0.728,5.505 0.72,5.519C0.688,5.574 0.621,5.695 0.578,5.857L2.51,6.373C2.498,6.419 2.483,6.455 2.472,6.479C2.462,6.502 2.454,6.515 2.456,6.512C2.456,6.511 2.458,6.508 2.462,6.501C2.466,6.495 2.473,6.483 2.48,6.47C2.495,6.445 2.518,6.403 2.543,6.353L0.739,5.49ZM0.578,5.857C0.589,5.813 0.604,5.773 0.619,5.737C0.635,5.703 0.648,5.677 0.656,5.664C0.657,5.661 0.659,5.658 0.66,5.657C0.661,5.655 0.661,5.654 0.661,5.654C0.662,5.654 0.661,5.654 0.661,5.654C0.661,5.655 0.661,5.655 0.66,5.656C0.66,5.657 0.658,5.659 0.657,5.662C0.65,5.673 0.636,5.697 0.62,5.727L2.395,6.65C2.386,6.667 2.379,6.679 2.379,6.678C2.38,6.678 2.38,6.677 2.381,6.676C2.382,6.674 2.383,6.672 2.385,6.669C2.388,6.663 2.394,6.654 2.4,6.642C2.431,6.588 2.477,6.496 2.51,6.373L0.578,5.857ZM0.62,5.727C0.578,5.809 0.553,5.882 0.539,5.933C0.532,5.958 0.526,5.979 0.523,5.994C0.52,6.009 0.517,6.021 0.516,6.025C0.515,6.032 0.516,6.027 0.517,6.023C0.518,6.018 0.521,6.006 0.525,5.99C0.533,5.958 0.55,5.902 0.582,5.836L2.387,6.696C2.425,6.617 2.446,6.548 2.458,6.503C2.464,6.481 2.468,6.462 2.471,6.45C2.472,6.444 2.473,6.439 2.474,6.436C2.474,6.433 2.475,6.429 2.475,6.429C2.476,6.427 2.474,6.432 2.473,6.44C2.471,6.449 2.467,6.464 2.462,6.483C2.451,6.52 2.431,6.581 2.395,6.65L0.62,5.727ZM0.582,5.836C0.593,5.812 0.602,5.797 0.598,5.804C0.597,5.805 0.596,5.806 0.594,5.81C0.593,5.813 0.59,5.817 0.588,5.822C0.582,5.832 0.574,5.847 0.564,5.865C0.527,5.937 0.455,6.087 0.434,6.29L2.423,6.5C2.407,6.653 2.353,6.76 2.337,6.791C2.332,6.801 2.325,6.813 2.337,6.791C2.345,6.777 2.366,6.741 2.387,6.696L0.582,5.836ZM0.434,6.29C0.441,6.225 0.454,6.176 0.459,6.159C0.46,6.154 0.462,6.148 0.458,6.159C0.456,6.166 0.451,6.185 0.445,6.206L2.378,6.722C2.375,6.732 2.373,6.738 2.374,6.734C2.374,6.734 2.379,6.717 2.384,6.701C2.395,6.662 2.413,6.591 2.423,6.5L0.434,6.29ZM0.445,6.206C0.437,6.239 0.429,6.259 0.4,6.35L2.305,6.959C2.316,6.923 2.352,6.817 2.378,6.722L0.445,6.206ZM0.4,6.35C0.41,6.318 0.419,6.299 0.416,6.305C0.415,6.308 0.413,6.312 0.407,6.324C0.403,6.334 0.394,6.351 0.386,6.37C0.354,6.44 0.275,6.616 0.257,6.847L2.251,7C2.246,7.069 2.232,7.123 2.221,7.157C2.211,7.189 2.202,7.208 2.205,7.202C2.206,7.199 2.208,7.195 2.214,7.183C2.218,7.173 2.227,7.156 2.235,7.137C2.252,7.099 2.28,7.036 2.305,6.959L0.4,6.35ZM0.257,6.847C0.252,6.914 0.246,6.983 0.238,7.053L2.228,7.26C2.237,7.174 2.245,7.088 2.251,7L0.257,6.847ZM0.238,7.053C0.243,7.006 0.252,6.97 0.257,6.949C0.263,6.929 0.267,6.918 0.263,6.928C0.263,6.931 0.262,6.933 0.26,6.937C0.259,6.941 0.257,6.947 0.255,6.952C0.251,6.963 0.245,6.98 0.239,6.999C0.227,7.036 0.21,7.092 0.196,7.16L2.156,7.56C2.149,7.592 2.142,7.614 2.141,7.618C2.14,7.62 2.14,7.62 2.142,7.615C2.143,7.612 2.144,7.61 2.145,7.605C2.147,7.601 2.149,7.595 2.151,7.59C2.165,7.548 2.211,7.421 2.228,7.26L0.238,7.053ZM0.196,7.16C0.19,7.192 0.198,7.145 0.215,7.092C0.239,7.022 0.28,6.929 0.353,6.835L1.932,8.063C2.026,7.942 2.081,7.821 2.114,7.722C2.141,7.639 2.156,7.561 2.156,7.56L0.196,7.16ZM0.353,6.835C0.284,6.925 0.242,7.007 0.219,7.058C0.208,7.084 0.199,7.106 0.194,7.12C0.189,7.133 0.184,7.146 0.184,7.147C0.182,7.152 0.184,7.147 0.186,7.14C0.189,7.132 0.195,7.118 0.203,7.099C0.22,7.062 0.251,6.999 0.305,6.928L1.905,8.128C1.967,8.045 2.005,7.968 2.028,7.918C2.039,7.893 2.048,7.871 2.053,7.857C2.059,7.843 2.063,7.831 2.064,7.829C2.066,7.823 2.064,7.828 2.062,7.835C2.059,7.842 2.053,7.857 2.044,7.877C2.027,7.914 1.993,7.985 1.932,8.063L0.353,6.835ZM0.305,6.928C0.358,6.857 0.409,6.821 0.411,6.819C0.412,6.818 0.411,6.819 0.406,6.822C0.402,6.825 0.396,6.829 0.386,6.836C0.378,6.841 0.364,6.85 0.35,6.86C0.336,6.869 0.319,6.881 0.3,6.895L1.459,8.524C1.463,8.521 1.469,8.517 1.494,8.501C1.513,8.488 1.549,8.464 1.588,8.436C1.668,8.378 1.791,8.279 1.905,8.128L0.305,6.928ZM0.3,6.895C0.266,6.918 0.178,6.982 0.09,7.076C0.004,7.167 -0.144,7.352 -0.199,7.63L1.762,8.023C1.716,8.251 1.597,8.392 1.548,8.444C1.52,8.475 1.495,8.496 1.482,8.507C1.474,8.513 1.469,8.517 1.465,8.52C1.461,8.523 1.459,8.524 1.459,8.524L0.3,6.895Z" fill="#FFFFFF"/>
</svg>
