<svg width="160" height="160" viewBox="0 0 160 160" fill="none" xmlns="http://www.w3.org/2000/svg" xmlns:xlink="http://www.w3.org/1999/xlink">
<g opacity="0.3">
<path d="M160,80C160,124.183 124.183,160 80,160C35.817,160 0,124.183 0,80C0,35.817 35.817,0 80,0C124.183,0 160,35.817 160,80ZM21.814,80C21.814,112.135 47.865,138.186 80,138.186C112.135,138.186 138.186,112.135 138.186,80C138.186,47.865 112.135,21.814 80,21.814C47.865,21.814 21.814,47.865 21.814,80Z" fill="#FFFFFF"/>
</g>
<circle cx="80" cy="80" r="58" fill="#FFFFFF"/>
<path d="M112.546,80C112.546,97.974 97.974,112.546 80,112.546L80,116.546C100.184,116.546 116.546,100.184 116.546,80L112.546,80ZM80,112.546C62.026,112.546 47.455,97.974 47.455,80L43.455,80C43.455,100.184 59.817,116.546 80,116.546L80,112.546ZM47.455,80C47.455,62.026 62.026,47.455 80,47.455L80,43.455C59.817,43.455 43.455,59.816 43.455,80L47.455,80ZM80,47.455C97.974,47.455 112.546,62.026 112.546,80L116.546,80C116.546,59.816 100.184,43.455 80,43.455L80,47.455Z" fill="#000000"/>
<path d="M87.799,70.468C88.558,71.783 90.24,72.235 91.555,71.476C92.871,70.718 93.323,69.036 92.564,67.72L87.799,70.468ZM83.636,65.459L83.636,68.209C83.667,68.209 83.698,68.208 83.729,68.207L83.636,65.459ZM76.364,94.541L76.364,91.791C76.333,91.791 76.302,91.792 76.271,91.793L76.364,94.541ZM72.2,89.532C71.442,88.217 69.76,87.765 68.444,88.524C67.129,89.282 66.677,90.964 67.436,92.28L72.2,89.532ZM92.564,67.72C91.656,66.146 90.337,64.848 88.748,63.965L86.078,68.774C86.795,69.172 87.39,69.757 87.799,70.468L92.564,67.72ZM88.748,63.965C87.159,63.083 85.36,62.649 83.544,62.71L83.729,68.207C84.549,68.179 85.361,68.375 86.078,68.774L88.748,63.965ZM83.636,62.709L76.364,62.709L76.364,68.209L83.636,68.209L83.636,62.709ZM76.364,62.709C73.706,62.709 71.156,63.764 69.277,65.643L73.165,69.533C74.013,68.685 75.164,68.209 76.364,68.209L76.364,62.709ZM69.277,65.643C67.397,67.523 66.341,70.071 66.341,72.729L71.841,72.729C71.841,71.531 72.317,70.381 73.165,69.533L69.277,65.643ZM66.341,72.729C66.341,75.387 67.397,77.936 69.277,79.815L73.165,75.926C72.317,75.078 71.841,73.928 71.841,72.729L66.341,72.729ZM69.277,79.815C71.156,81.694 73.706,82.75 76.364,82.75L76.364,77.25C75.164,77.25 74.013,76.774 73.165,75.926L69.277,79.815ZM76.364,82.75L83.636,82.75L83.636,77.25L76.364,77.25L76.364,82.75ZM83.636,82.75C84.836,82.75 85.986,83.226 86.835,84.074L90.723,80.185C88.843,78.306 86.294,77.25 83.636,77.25L83.636,82.75ZM86.835,84.074C87.683,84.922 88.159,86.072 88.159,87.271L93.659,87.271C93.659,84.613 92.603,82.064 90.723,80.185L86.835,84.074ZM88.159,87.271C88.159,88.469 87.683,89.619 86.835,90.467L90.723,94.357C92.603,92.478 93.659,89.929 93.659,87.271L88.159,87.271ZM86.835,90.467C85.986,91.315 84.836,91.791 83.636,91.791L83.636,97.291C86.294,97.291 88.843,96.236 90.723,94.357L86.835,90.467ZM83.636,91.791L76.364,91.791L76.364,97.291L83.636,97.291L83.636,91.791ZM76.271,91.793C75.451,91.821 74.639,91.625 73.922,91.226L71.252,96.035C72.841,96.917 74.64,97.351 76.456,97.29L76.271,91.793ZM73.922,91.226C73.205,90.828 72.61,90.243 72.2,89.532L67.436,92.28C68.344,93.854 69.663,95.152 71.252,96.035L73.922,91.226Z" fill="#000000"/>
<line x1="77.25" y1="56.364" x2="77.25" y2="103.636" stroke="#000000" stroke-width="2.75" stroke-miterlimit="3.999327" stroke-linecap="round" stroke-linejoin="round"/>
</svg>
