<svg width="160" height="160" viewBox="0 0 160 160" fill="none" xmlns="http://www.w3.org/2000/svg" xmlns:xlink="http://www.w3.org/1999/xlink">
<g opacity="0.3">
<path d="M159,80C159,124.183 123.183,160 79,160C34.817,160 -1,124.183 -1,80C-1,35.817 34.817,0 79,0C123.183,0 159,35.817 159,80ZM20.814,80C20.814,112.135 46.865,138.186 79,138.186C111.135,138.186 137.186,112.135 137.186,80C137.186,47.865 111.135,21.814 79,21.814C46.865,21.814 20.814,47.865 20.814,80Z" fill="#2F2E30"/>
</g>
<circle cx="79" cy="80" r="58" fill="#000000"/>
<path d="M87.85,81.237C87.339,79.791 86.392,78.538 85.139,77.653C83.886,76.767 82.389,76.291 80.855,76.291L80.855,74.437L77.146,74.437L77.146,76.291C75.179,76.291 73.292,77.073 71.901,78.464C70.51,79.855 69.728,81.742 69.728,83.709C69.728,85.677 70.51,87.564 71.901,88.955C73.292,90.346 75.179,91.127 77.146,91.127L77.146,98.546C75.533,98.546 74.158,97.516 73.647,96.074C73.571,95.837 73.448,95.619 73.286,95.431C73.125,95.243 72.927,95.09 72.704,94.98C72.482,94.87 72.24,94.805 71.993,94.79C71.745,94.775 71.497,94.81 71.263,94.893C71.03,94.975 70.815,95.104 70.632,95.271C70.448,95.438 70.3,95.64 70.197,95.866C70.093,96.091 70.036,96.335 70.028,96.583C70.02,96.83 70.062,97.077 70.151,97.309C70.662,98.755 71.61,100.007 72.863,100.893C74.115,101.779 75.612,102.255 77.146,102.255L77.146,104.109L80.855,104.109L80.855,102.255C82.823,102.255 84.709,101.473 86.101,100.082C87.492,98.691 88.273,96.804 88.273,94.837C88.273,92.869 87.492,90.982 86.101,89.591C84.709,88.2 82.823,87.418 80.855,87.418L80.855,80C81.622,80 82.37,80.238 82.997,80.68C83.623,81.123 84.097,81.749 84.353,82.472C84.517,82.936 84.858,83.316 85.302,83.528C85.521,83.633 85.76,83.694 86.003,83.707C86.246,83.72 86.49,83.685 86.719,83.604C86.949,83.523 87.16,83.397 87.341,83.234C87.523,83.071 87.67,82.874 87.775,82.655C87.88,82.435 87.941,82.197 87.954,81.954C87.967,81.71 87.932,81.467 87.85,81.237L87.85,81.237ZM77.146,80C76.162,80 75.219,80.391 74.523,81.087C73.828,81.782 73.437,82.726 73.437,83.709C73.437,84.693 73.828,85.636 74.523,86.332C75.219,87.028 76.162,87.418 77.146,87.418L77.146,80ZM80.855,98.546C81.839,98.546 82.782,98.155 83.478,97.459C84.173,96.764 84.564,95.82 84.564,94.837C84.564,93.853 84.173,92.909 83.478,92.214C82.782,91.518 81.839,91.127 80.855,91.127L80.855,98.546Z" clip-rule="evenodd" fill-rule="evenodd" fill="#FAFAFA" stroke="#FAFAFA" stroke-width="1" stroke-miterlimit="3.999327"/>
<path d="M58.884,51.48C63.435,49.252 70.902,46.619 79.073,46.619C87.073,46.619 94.343,49.143 98.87,51.34L99.126,51.465C100.491,52.14 101.592,52.778 102.367,53.295L95.517,63.31C111.31,79.455 123.509,113.376 79.073,113.376C34.636,113.376 46.507,80.071 62.438,63.31L55.632,53.295C56.156,52.952 56.822,52.553 57.616,52.13C58.009,51.919 58.432,51.702 58.884,51.481L58.884,51.48ZM91.114,63.176L96.598,55.159C91.498,55.526 85.43,56.724 79.588,58.415C75.416,59.621 70.779,59.437 66.486,58.645C65.404,58.445 64.33,58.206 63.265,57.93L66.825,63.172C74.457,65.889 83.481,65.889 91.114,63.176L91.114,63.176ZM64.683,66.332C73.613,69.782 84.345,69.782 93.275,66.329C97.002,70.258 100.12,74.723 102.525,79.576C105.032,84.69 106.397,89.803 106.175,94.21C105.96,98.462 104.287,102.095 100.466,104.795C96.485,107.609 89.788,109.667 79.071,109.667C68.342,109.667 61.614,107.644 57.595,104.862C53.747,102.195 52.058,98.612 51.819,94.417C51.568,90.059 52.904,84.972 55.402,79.822C57.785,74.911 61.11,70.184 64.683,66.332L64.683,66.332ZM62.551,53.881C64.034,54.323 65.585,54.706 67.157,54.998C71.145,55.732 75.143,55.84 78.555,54.851C82.532,53.693 86.576,52.782 90.665,52.123C87.253,51.096 83.262,50.328 79.071,50.328C72.682,50.328 66.723,52.11 62.551,53.881L62.551,53.881Z" clip-rule="evenodd" fill-rule="evenodd" fill="#FAFAFA" stroke="#FAFAFA" stroke-width="1" stroke-miterlimit="3.999327"/>
</svg>
