<svg width="160" height="160" viewBox="0 0 160 160" fill="none" xmlns="http://www.w3.org/2000/svg" xmlns:xlink="http://www.w3.org/1999/xlink">
<g opacity="0.3">
<path d="M160,80C160,124.183 124.183,160 80,160C35.817,160 0,124.183 0,80C0,35.817 35.817,0 80,0C124.183,0 160,35.817 160,80ZM21.814,80C21.814,112.135 47.865,138.186 80,138.186C112.135,138.186 138.186,112.135 138.186,80C138.186,47.865 112.135,21.814 80,21.814C47.865,21.814 21.814,47.865 21.814,80Z" fill="#2F2E30"/>
</g>
<circle cx="80" cy="80" r="58" fill="#000000"/>
<path d="M94.977,50L94.977,48L92.767,48L92.986,50.199L94.977,50ZM96.643,66.667L94.653,66.866L94.724,67.576L95.229,68.081L96.643,66.667ZM104.977,70L104.979,68L104.977,68L104.977,70ZM112.107,67.313L113.428,68.814L113.451,68.795L113.472,68.775L112.107,67.313ZM112.607,65.763L110.634,66.093L110.639,66.122L110.645,66.151L112.607,65.763ZM110.253,51.667L112.226,51.337L112.225,51.333L110.253,51.667ZM108.283,48L94.977,48L94.977,52L108.283,52L108.283,48ZM92.986,50.199L94.653,66.866L98.633,66.468L96.967,49.801L92.986,50.199ZM96.643,66.667C95.229,68.081 95.23,68.081 95.23,68.082C95.23,68.082 95.231,68.083 95.231,68.083C95.232,68.084 95.233,68.085 95.234,68.086C95.236,68.087 95.238,68.089 95.24,68.092C95.244,68.096 95.25,68.101 95.256,68.107C95.268,68.119 95.284,68.134 95.303,68.152C95.34,68.188 95.392,68.236 95.456,68.294C95.584,68.41 95.764,68.566 95.993,68.749C96.45,69.115 97.108,69.593 97.943,70.07C99.603,71.019 102.029,72 104.977,72L104.977,68C102.924,68 101.183,67.315 99.927,66.597C99.303,66.24 98.816,65.885 98.492,65.626C98.33,65.496 98.211,65.392 98.137,65.326C98.1,65.292 98.075,65.269 98.061,65.256C98.055,65.249 98.051,65.246 98.05,65.245C98.05,65.245 98.05,65.245 98.051,65.247C98.052,65.247 98.053,65.248 98.054,65.249C98.054,65.249 98.055,65.25 98.056,65.251C98.056,65.251 98.056,65.251 98.056,65.251C98.057,65.252 98.057,65.252 96.643,66.667ZM104.974,72C108.086,72.004 111.093,70.871 113.428,68.814L110.785,65.812C109.181,67.225 107.116,68.003 104.979,68L104.974,72ZM113.472,68.775C113.929,68.348 114.269,67.812 114.461,67.217L110.654,65.989C110.671,65.937 110.701,65.89 110.741,65.852L113.472,68.775ZM114.461,67.217C114.653,66.622 114.69,65.989 114.569,65.376L110.645,66.151C110.634,66.097 110.637,66.041 110.654,65.989L114.461,67.217ZM114.579,65.434L112.226,51.337L108.281,51.996L110.634,66.093L114.579,65.434ZM112.225,51.333C112.068,50.402 111.586,49.556 110.865,48.946L108.281,52L108.281,52L112.225,51.333ZM110.865,48.946C110.144,48.336 109.23,48.001 108.285,48L108.281,52L108.281,52L110.865,48.946Z" fill="#FFFFFF"/>
<path d="M94.977,50L96.967,49.801L96.787,48L94.977,48L94.977,50ZM96.643,66.667L98.057,68.081L98.728,67.411L98.633,66.468L96.643,66.667ZM79.977,66.667L77.977,66.667L77.977,67.495L78.562,68.081L79.977,66.667ZM79.977,50L79.977,48L77.977,48L77.977,50L79.977,50ZM92.986,50.199L94.653,66.866L98.633,66.468L96.967,49.801L92.986,50.199ZM96.643,66.667C95.229,65.252 95.23,65.252 95.23,65.251C95.23,65.251 95.231,65.251 95.231,65.251C95.232,65.25 95.232,65.249 95.233,65.249C95.234,65.248 95.234,65.247 95.235,65.247C95.236,65.245 95.237,65.245 95.236,65.245C95.236,65.246 95.232,65.249 95.225,65.256C95.212,65.269 95.187,65.292 95.15,65.326C95.076,65.392 94.956,65.496 94.795,65.626C94.47,65.885 93.983,66.24 93.359,66.597C92.103,67.315 90.362,68 88.31,68L88.31,72C91.257,72 93.683,71.019 95.344,70.07C96.178,69.593 96.837,69.115 97.294,68.749C97.523,68.566 97.703,68.41 97.831,68.294C97.895,68.236 97.946,68.188 97.984,68.152C98.003,68.134 98.018,68.119 98.031,68.107C98.037,68.101 98.042,68.096 98.047,68.092C98.049,68.089 98.051,68.087 98.053,68.086C98.054,68.085 98.054,68.084 98.055,68.083C98.056,68.083 98.056,68.082 98.056,68.082C98.057,68.081 98.057,68.081 96.643,66.667ZM88.31,68C86.257,68 84.517,67.315 83.261,66.597C82.637,66.24 82.149,65.885 81.825,65.626C81.663,65.496 81.544,65.392 81.47,65.326C81.433,65.292 81.408,65.269 81.395,65.256C81.388,65.249 81.384,65.246 81.383,65.245C81.383,65.245 81.384,65.245 81.385,65.247C81.385,65.247 81.386,65.248 81.387,65.249C81.388,65.249 81.388,65.25 81.389,65.251C81.389,65.251 81.39,65.251 81.39,65.251C81.39,65.252 81.391,65.252 79.977,66.667C78.562,68.081 78.563,68.081 78.563,68.082C78.564,68.082 78.564,68.083 78.565,68.083C78.565,68.084 78.566,68.085 78.567,68.086C78.569,68.087 78.571,68.089 78.573,68.092C78.578,68.096 78.583,68.101 78.589,68.107C78.601,68.119 78.617,68.134 78.636,68.152C78.674,68.188 78.725,68.236 78.789,68.294C78.917,68.41 79.097,68.566 79.326,68.749C79.783,69.115 80.442,69.593 81.276,70.07C82.936,71.019 85.362,72 88.31,72L88.31,68ZM81.977,66.667L81.977,50L77.977,50L77.977,66.667L81.977,66.667ZM79.977,52L94.977,52L94.977,48L79.977,48L79.977,52Z" fill="#FAFAFA"/>
<path d="M79.977,50L81.977,50L81.977,48L79.977,48L79.977,50ZM79.977,66.667L81.391,68.081L81.977,67.495L81.977,66.667L79.977,66.667ZM63.31,66.667L61.32,66.468L61.226,67.411L61.896,68.081L63.31,66.667ZM64.977,50L64.977,48L63.167,48L62.987,49.801L64.977,50ZM77.977,50L77.977,66.667L81.977,66.667L81.977,50L77.977,50ZM79.977,66.667C78.563,65.252 78.563,65.252 78.564,65.251C78.564,65.251 78.564,65.251 78.564,65.251C78.565,65.25 78.566,65.249 78.566,65.249C78.567,65.248 78.568,65.247 78.568,65.247C78.57,65.245 78.57,65.245 78.57,65.245C78.569,65.246 78.565,65.249 78.559,65.256C78.545,65.269 78.52,65.292 78.483,65.326C78.409,65.392 78.29,65.496 78.128,65.626C77.804,65.885 77.317,66.24 76.693,66.597C75.437,67.315 73.696,68 71.643,68L71.643,72C74.591,72 77.017,71.019 78.677,70.07C79.512,69.593 80.17,69.115 80.627,68.749C80.856,68.566 81.036,68.41 81.164,68.294C81.228,68.236 81.28,68.188 81.317,68.152C81.336,68.134 81.352,68.119 81.364,68.107C81.37,68.101 81.376,68.096 81.38,68.092C81.382,68.089 81.384,68.087 81.386,68.086C81.387,68.085 81.388,68.084 81.389,68.083C81.389,68.083 81.39,68.082 81.39,68.082C81.39,68.081 81.391,68.081 79.977,66.667ZM71.643,68C69.591,68 67.85,67.315 66.594,66.597C65.97,66.24 65.483,65.885 65.158,65.626C64.997,65.496 64.877,65.392 64.804,65.326C64.767,65.292 64.741,65.269 64.728,65.256C64.721,65.249 64.718,65.246 64.717,65.245C64.717,65.245 64.717,65.245 64.718,65.247C64.719,65.247 64.72,65.248 64.721,65.249C64.721,65.249 64.722,65.25 64.722,65.251C64.723,65.251 64.723,65.251 64.723,65.251C64.724,65.252 64.724,65.252 63.31,66.667C61.896,68.081 61.896,68.081 61.897,68.082C61.897,68.082 61.898,68.083 61.898,68.083C61.899,68.084 61.9,68.085 61.901,68.086C61.902,68.087 61.904,68.089 61.907,68.092C61.911,68.096 61.916,68.101 61.923,68.107C61.935,68.119 61.95,68.134 61.969,68.152C62.007,68.188 62.058,68.236 62.122,68.294C62.25,68.41 62.431,68.566 62.66,68.749C63.116,69.115 63.775,69.593 64.609,70.07C66.27,71.019 68.696,72 71.643,72L71.643,68ZM65.3,66.866L66.967,50.199L62.987,49.801L61.32,66.468L65.3,66.866ZM64.977,52L79.977,52L79.977,48L64.977,48L64.977,52Z" fill="#FAFAFA"/>
<path d="M64.977,50L66.977,50L66.977,48L64.977,48L64.977,50ZM51.673,50L51.672,52L51.673,52L51.673,50ZM49.7,51.67L47.727,51.34L47.727,51.341L49.7,51.67ZM47.35,65.767L49.312,66.152L49.318,66.124L49.323,66.096L47.35,65.767ZM47.85,67.317L46.483,68.776L46.504,68.796L46.525,68.815L47.85,67.317ZM63.31,66.67L64.724,68.084L65.229,67.579L65.3,66.869L63.31,66.67ZM64.977,50.003L66.967,50.202L66.977,50.103L66.977,50.003L64.977,50.003ZM64.977,48L51.673,48L51.673,52L64.977,52L64.977,48ZM51.674,48C50.727,48 49.811,48.335 49.088,48.947L51.672,52L51.672,52L51.674,48ZM49.088,48.947C48.366,49.558 47.883,50.406 47.727,51.34L51.672,52L51.672,52L49.088,48.947ZM47.727,51.341L45.377,65.438L49.323,66.096L51.673,51.999L47.727,51.341ZM45.387,65.381C45.267,65.993 45.304,66.626 45.496,67.22L49.303,65.992C49.32,66.044 49.323,66.099 49.312,66.152L45.387,65.381ZM45.496,67.22C45.688,67.814 46.027,68.35 46.483,68.776L49.217,65.857C49.257,65.894 49.286,65.941 49.303,65.992L45.496,67.22ZM46.525,68.815C47.822,69.962 50.719,72.003 54.977,72.003L54.977,68.003C52.054,68.003 50.064,66.605 49.175,65.818L46.525,68.815ZM54.977,72.003C57.924,72.003 60.35,71.022 62.01,70.073C62.845,69.596 63.503,69.118 63.96,68.753C64.189,68.569 64.369,68.413 64.497,68.297C64.561,68.24 64.613,68.192 64.651,68.156C64.669,68.138 64.685,68.123 64.697,68.111C64.703,68.105 64.709,68.099 64.713,68.095C64.715,68.093 64.717,68.091 64.719,68.089C64.72,68.088 64.721,68.087 64.722,68.086C64.722,68.086 64.723,68.085 64.723,68.085C64.724,68.085 64.724,68.084 63.31,66.67C61.896,65.256 61.896,65.255 61.897,65.255C61.897,65.255 61.897,65.254 61.898,65.254C61.898,65.253 61.899,65.253 61.899,65.252C61.9,65.251 61.901,65.25 61.902,65.25C61.903,65.249 61.903,65.248 61.903,65.249C61.902,65.249 61.899,65.253 61.892,65.259C61.878,65.272 61.853,65.296 61.816,65.329C61.742,65.396 61.623,65.5 61.462,65.629C61.137,65.889 60.65,66.244 60.026,66.6C58.77,67.318 57.029,68.003 54.977,68.003L54.977,72.003ZM65.3,66.869L66.967,50.202L62.986,49.804L61.32,66.471L65.3,66.869ZM66.977,50.003L66.977,50L62.977,50L62.977,50.003L66.977,50.003Z" fill="#FAFAFA"/>
<path d="M50,103.333L48,103.333L50,103.333ZM48,70L48,103.333L52,103.333L52,70L48,70ZM48,103.333C48,105.632 48.913,107.836 50.538,109.462L53.367,106.633C52.492,105.758 52,104.571 52,103.333L48,103.333ZM50.538,109.462C52.164,111.087 54.368,112 56.667,112L56.667,108C55.429,108 54.242,107.508 53.367,106.633L50.538,109.462ZM56.667,112L103.333,112L103.333,108L56.667,108L56.667,112ZM103.333,112C105.632,112 107.836,111.087 109.462,109.462L106.633,106.633C105.758,107.508 104.571,108 103.333,108L103.333,112ZM109.462,109.462C111.087,107.836 112,105.632 112,103.333L108,103.333C108,104.571 107.508,105.758 106.633,106.633L109.462,109.462ZM112,103.333L112,70L108,70L108,103.333L112,103.333Z" fill="#FAFAFA"/>
<path d="M91.443,110L91.443,90L87.443,90L87.443,110L91.443,110ZM91.443,90C91.443,87.701 90.53,85.497 88.905,83.872L86.077,86.7C86.952,87.575 87.443,88.762 87.443,90L91.443,90ZM88.905,83.872C87.28,82.246 85.075,81.333 82.777,81.333L82.777,85.333C84.014,85.333 85.201,85.825 86.077,86.7L88.905,83.872ZM82.777,81.333L76.11,81.333L76.11,85.333L82.777,85.333L82.777,81.333ZM76.11,81.333C73.811,81.333 71.607,82.246 69.982,83.872L72.81,86.7C73.685,85.825 74.872,85.333 76.11,85.333L76.11,81.333ZM69.982,83.872C68.356,85.497 67.443,87.701 67.443,90L71.443,90C71.443,88.762 71.935,87.575 72.81,86.7L69.982,83.872ZM67.443,90L67.443,110L71.443,110L71.443,90L67.443,90Z" fill="#FAFAFA"/>
</svg>
