<svg width="160" height="160" viewBox="0 0 160 160" fill="none" xmlns="http://www.w3.org/2000/svg" xmlns:xlink="http://www.w3.org/1999/xlink">
<g opacity="0.3">
<path d="M160,80C160,124.183 124.183,160 80,160C35.817,160 0,124.183 0,80C0,35.817 35.817,0 80,0C124.183,0 160,35.817 160,80ZM21.814,80C21.814,112.135 47.865,138.186 80,138.186C112.135,138.186 138.186,112.135 138.186,80C138.186,47.865 112.135,21.814 80,21.814C47.865,21.814 21.814,47.865 21.814,80Z" fill="#2F2E30"/>
</g>
<circle cx="80" cy="80" r="58" fill="#000000"/>
<path d="M63.333,63.333L63.333,56.667C63.334,54.736 63.892,52.847 64.942,51.227C65.992,49.607 67.489,48.326 69.251,47.538C71.013,46.75 72.966,46.489 74.873,46.786C76.781,47.083 78.561,47.926 80,49.213C81.439,47.926 83.219,47.083 85.127,46.786C87.034,46.489 88.987,46.75 90.749,47.538C92.511,48.326 94.008,49.607 95.058,51.227C96.108,52.847 96.667,54.736 96.667,56.667L96.667,63.333L101.667,63.333C102.993,63.333 104.265,63.86 105.202,64.798C106.14,65.735 106.667,67.007 106.667,68.333L106.667,101.683C106.667,104.773 105.439,107.736 103.255,109.921C101.07,112.106 98.107,113.333 95.017,113.333L66.667,113.333C63.131,113.333 59.739,111.928 57.239,109.428C54.738,106.928 53.333,103.536 53.333,100L53.333,68.333C53.333,67.007 53.86,65.735 54.798,64.798C55.736,63.86 57.007,63.333 58.333,63.333L63.333,63.333ZM85.45,108.333C84.09,106.383 83.363,104.061 83.367,101.683L83.367,68.333L58.333,68.333L58.333,100C58.333,101.094 58.549,102.178 58.968,103.189C59.387,104.2 60,105.119 60.774,105.892C61.548,106.666 62.467,107.28 63.478,107.699C64.489,108.118 65.572,108.333 66.667,108.333L85.45,108.333ZM78.333,63.333L78.333,56.667C78.333,55.341 77.807,54.069 76.869,53.131C75.931,52.193 74.659,51.667 73.333,51.667C72.007,51.667 70.736,52.193 69.798,53.131C68.86,54.069 68.333,55.341 68.333,56.667L68.333,63.333L78.333,63.333ZM83.333,63.333L91.667,63.333L91.667,56.667C91.667,55.637 91.349,54.633 90.758,53.791C90.166,52.949 89.328,52.31 88.36,51.962C87.392,51.613 86.339,51.572 85.347,51.844C84.354,52.115 83.469,52.687 82.813,53.48C83.15,54.48 83.333,55.553 83.333,56.667L83.333,63.333ZM88.367,101.683C88.367,103.447 89.067,105.138 90.314,106.386C91.562,107.633 93.253,108.333 95.017,108.333C96.78,108.333 98.472,107.633 99.719,106.386C100.966,105.138 101.667,103.447 101.667,101.683L101.667,68.333L88.367,68.333L88.367,101.683Z" fill="#FFFFFF"/>
</svg>
