<svg width="64" height="64" viewBox="0 0 64 64" fill="none" xmlns="http://www.w3.org/2000/svg" xmlns:xlink="http://www.w3.org/1999/xlink">
<path d="M46.5,54C46.5,54.828 47.172,55.5 48,55.5C48.828,55.5 49.5,54.828 49.5,54L46.5,54ZM48,48.667L49.5,48.667L48,48.667ZM38.933,38L38.933,36.5L38.933,38ZM23.067,38L23.067,36.5L23.067,38ZM14,48.667L12.5,48.667L14,48.667ZM12.5,54C12.5,54.828 13.172,55.5 14,55.5C14.828,55.5 15.5,54.828 15.5,54L12.5,54ZM49.5,54L49.5,48.667L46.5,48.667L46.5,54L49.5,54ZM49.5,48.667C49.5,45.512 48.437,42.446 46.487,40.153L44.202,42.096C45.653,43.803 46.5,46.164 46.5,48.667L49.5,48.667ZM46.487,40.153C44.532,37.852 41.822,36.5 38.933,36.5L38.933,39.5C40.854,39.5 42.757,40.396 44.202,42.096L46.487,40.153ZM38.933,36.5L23.067,36.5L23.067,39.5L38.933,39.5L38.933,36.5ZM23.067,36.5C20.178,36.5 17.468,37.852 15.513,40.153L17.798,42.096C19.243,40.396 21.146,39.5 23.067,39.5L23.067,36.5ZM15.513,40.153C13.563,42.446 12.5,45.512 12.5,48.667L15.5,48.667C15.5,46.164 16.347,43.803 17.798,42.096L15.513,40.153ZM12.5,48.667L12.5,54L15.5,54L15.5,48.667L12.5,48.667Z" fill="#000000"/>
<path d="M40.5,19C40.5,23.142 37.142,26.5 33,26.5L33,29.5C38.799,29.5 43.5,24.799 43.5,19L40.5,19ZM33,26.5C28.858,26.5 25.5,23.142 25.5,19L22.5,19C22.5,24.799 27.201,29.5 33,29.5L33,26.5ZM25.5,19C25.5,14.858 28.858,11.5 33,11.5L33,8.5C27.201,8.5 22.5,13.201 22.5,19L25.5,19ZM33,11.5C37.142,11.5 40.5,14.858 40.5,19L43.5,19C43.5,13.201 38.799,8.5 33,8.5L33,11.5Z" fill="#000000"/>
</svg>
