<svg width="42" height="32" viewBox="0 0 42 32" fill="none" xmlns="http://www.w3.org/2000/svg" xmlns:xlink="http://www.w3.org/1999/xlink">
<path d="M38.514,18.076L39.705,18.988L39.705,18.988L38.514,18.076ZM1.486,18.076L2.677,17.164L2.671,17.156L1.486,18.076ZM0.774,16L-0.726,16L0.774,16ZM1.486,13.924L2.671,14.844L2.677,14.836L1.486,13.924ZM37.322,14.835C37.86,15.538 37.859,16.465 37.323,17.164L39.705,18.988C41.065,17.211 41.064,14.79 39.706,13.013L37.322,14.835ZM37.323,17.164C35.871,19.06 33.422,21.931 30.353,24.315C27.268,26.713 23.707,28.5 20,28.5L20,31.5C24.657,31.5 28.86,29.274 32.194,26.684C35.545,24.081 38.171,20.99 39.705,18.988L37.323,17.164ZM20,28.5C16.293,28.5 12.732,26.713 9.647,24.315C6.578,21.931 4.129,19.06 2.677,17.164L0.295,18.988C1.829,20.99 4.455,24.081 7.806,26.684C11.14,29.274 15.343,31.5 20,31.5L20,28.5ZM2.671,17.156C2.414,16.825 2.274,16.419 2.274,16L-0.726,16C-0.726,17.085 -0.364,18.139 0.301,18.996L2.671,17.156ZM2.274,16C2.274,15.581 2.414,15.175 2.671,14.844L0.301,13.004C-0.364,13.861 -0.726,14.915 -0.726,16L2.274,16ZM2.677,14.836C4.129,12.94 6.578,10.069 9.647,7.685C12.732,5.287 16.293,3.5 20,3.5L20,0.5C15.343,0.5 11.14,2.726 7.806,5.316C4.455,7.919 1.829,11.01 0.295,13.012L2.677,14.836ZM20,3.5C23.707,3.5 27.268,5.287 30.353,7.685C33.422,10.069 35.871,12.94 37.323,14.836L39.705,13.012C38.171,11.01 35.545,7.919 32.194,5.316C28.86,2.726 24.657,0.5 20,0.5L20,3.5Z" fill="#000000"/>
<path d="M24.5,16C24.5,18.485 22.485,20.5 20,20.5L20,23.5C24.142,23.5 27.5,20.142 27.5,16L24.5,16ZM20,20.5C17.515,20.5 15.5,18.485 15.5,16L12.5,16C12.5,20.142 15.858,23.5 20,23.5L20,20.5ZM15.5,16C15.5,13.515 17.515,11.5 20,11.5L20,8.5C15.858,8.5 12.5,11.858 12.5,16L15.5,16ZM20,11.5C22.485,11.5 24.5,13.515 24.5,16L27.5,16C27.5,11.858 24.142,8.5 20,8.5L20,11.5Z" fill="#000000"/>
</svg>
