<svg width="36" height="32" viewBox="0 0 36 32" fill="none" xmlns="http://www.w3.org/2000/svg" xmlns:xlink="http://www.w3.org/1999/xlink">
<path d="M17.181,29.775L16.406,31.059L16.412,31.063L17.181,29.775ZM18.819,29.775L19.588,31.063L19.594,31.059L18.819,29.775ZM18,6.71L16.806,7.618C17.09,7.991 17.531,8.21 18,8.21C18.469,8.21 18.91,7.991 19.194,7.618L18,6.71ZM10,0.5C4.795,0.5 0.5,4.61 0.5,9.772L3.5,9.772C3.5,6.348 6.369,3.5 10,3.5L10,0.5ZM0.5,9.772C0.5,11.727 0.9,14.92 3.129,18.715C5.352,22.5 9.347,26.8 16.406,31.059L17.956,28.49C11.234,24.435 7.638,20.467 5.716,17.195C3.8,13.933 3.5,11.282 3.5,9.772L0.5,9.772ZM16.412,31.063C16.892,31.349 17.442,31.5 18,31.5L18,28.5C17.98,28.5 17.963,28.495 17.95,28.487L16.412,31.063ZM18,31.5C18.558,31.5 19.108,31.349 19.588,31.063L18.05,28.487C18.037,28.495 18.02,28.5 18,28.5L18,31.5ZM19.594,31.059C26.653,26.8 30.648,22.5 32.871,18.715C35.1,14.92 35.5,11.727 35.5,9.772L32.5,9.772C32.5,11.282 32.2,13.933 30.284,17.195C28.362,20.467 24.766,24.435 18.044,28.49L19.594,31.059ZM35.5,9.772C35.5,4.61 31.205,0.5 26,0.5L26,3.5C29.63,3.5 32.5,6.348 32.5,9.772L35.5,9.772ZM26,0.5C23.278,0.5 20.944,1.933 19.397,3.191C18.603,3.837 17.964,4.479 17.523,4.961C17.302,5.202 17.128,5.405 17.007,5.552C16.946,5.625 16.899,5.684 16.865,5.726C16.849,5.747 16.835,5.765 16.825,5.777C16.82,5.784 16.816,5.789 16.813,5.793C16.811,5.795 16.81,5.797 16.809,5.799C16.808,5.799 16.808,5.8 16.807,5.801C16.807,5.801 16.807,5.801 16.807,5.801C16.806,5.802 16.806,5.802 18,6.71C19.194,7.618 19.194,7.619 19.193,7.619C19.193,7.619 19.193,7.619 19.193,7.619C19.193,7.62 19.193,7.62 19.192,7.62C19.192,7.621 19.192,7.621 19.192,7.62C19.193,7.62 19.194,7.619 19.196,7.616C19.2,7.611 19.207,7.602 19.217,7.589C19.238,7.562 19.272,7.52 19.318,7.464C19.41,7.353 19.551,7.188 19.734,6.988C20.103,6.586 20.636,6.051 21.29,5.519C22.639,4.422 24.304,3.5 26,3.5L26,0.5ZM18,6.71C19.194,5.802 19.194,5.802 19.193,5.801C19.193,5.801 19.193,5.801 19.193,5.801C19.192,5.8 19.192,5.799 19.191,5.799C19.19,5.797 19.189,5.795 19.187,5.793C19.184,5.789 19.18,5.784 19.175,5.777C19.165,5.765 19.151,5.747 19.135,5.726C19.101,5.684 19.054,5.625 18.993,5.552C18.872,5.405 18.698,5.202 18.477,4.961C18.036,4.479 17.397,3.837 16.603,3.191C15.056,1.933 12.722,0.5 10,0.5L10,3.5C11.696,3.5 13.361,4.422 14.71,5.519C15.364,6.051 15.897,6.586 16.266,6.988C16.449,7.188 16.59,7.353 16.682,7.464C16.728,7.52 16.762,7.562 16.783,7.589C16.793,7.602 16.8,7.611 16.804,7.616C16.806,7.619 16.807,7.62 16.808,7.62C16.808,7.621 16.808,7.621 16.808,7.62C16.807,7.62 16.807,7.62 16.807,7.619C16.807,7.619 16.807,7.619 16.807,7.619C16.806,7.619 16.806,7.618 18,6.71Z" fill="#000000"/>
</svg>
