<svg width="30" height="30" viewBox="0 0 30 30" fill="none" xmlns="http://www.w3.org/2000/svg" xmlns:xlink="http://www.w3.org/1999/xlink">
<g opacity="0.25">
<path d="M27.346,14.343C29.487,12.724 28.342,9.31 25.657,9.31L20.798,9.31C19.571,9.31 18.486,8.51 18.123,7.337L16.675,2.653C15.862,0.022 12.138,0.022 11.325,2.653L9.877,7.337C9.514,8.51 8.429,9.31 7.202,9.31L2.259,9.31C-0.417,9.31 -1.568,12.705 0.556,14.333L4.789,17.576C5.718,18.287 6.106,19.5 5.764,20.618L4.226,25.641C3.428,28.246 6.443,30.341 8.606,28.684L12.297,25.856C13.302,25.086 14.698,25.086 15.703,25.856L19.361,28.659C21.527,30.318 24.545,28.216 23.739,25.609L22.18,20.565C21.832,19.44 22.226,18.216 23.166,17.505L27.346,14.343Z" fill="#000000"/>
</g>
</svg>
