<svg width="36" height="32" viewBox="0 0 36 32" fill="none" xmlns="http://www.w3.org/2000/svg" xmlns:xlink="http://www.w3.org/1999/xlink">
<path d="M17.414,3.414C18.195,2.633 18.195,1.367 17.414,0.586C16.633,-0.195 15.367,-0.195 14.586,0.586L17.414,3.414ZM2,16L0.586,14.586C-0.195,15.367 -0.195,16.633 0.586,17.414L2,16ZM14.586,31.414C15.367,32.195 16.633,32.195 17.414,31.414C18.195,30.633 18.195,29.367 17.414,28.586L14.586,31.414ZM2,14C0.895,14 0,14.895 0,16C0,17.105 0.895,18 2,18L2,14ZM34,18C35.105,18 36,17.105 36,16C36,14.895 35.105,14 34,14L34,18ZM14.586,0.586L0.586,14.586L3.414,17.414L17.414,3.414L14.586,0.586ZM0.586,17.414L14.586,31.414L17.414,28.586L3.414,14.586L0.586,17.414ZM2,18L34,18L34,14L2,14L2,18Z" fill="#000000"/>
</svg>
