<svg width="16" height="32" viewBox="0 0 16 32" fill="none" xmlns="http://www.w3.org/2000/svg" xmlns:xlink="http://www.w3.org/1999/xlink">
<path d="M16,-0.333C15.501,-0.337 15.012,-0.199 14.589,0.064C14.166,0.327 13.827,0.705 13.61,1.153L9.906,8.66L1.62,9.863C1.127,9.934 0.664,10.142 0.283,10.463C-0.098,10.783 -0.382,11.204 -0.536,11.678C-0.69,12.151 -0.708,12.659 -0.589,13.142C-0.47,13.625 -0.217,14.066 0.14,14.413L6.14,20.257L4.723,28.51C4.639,29 4.693,29.504 4.88,29.965C5.068,30.426 5.38,30.825 5.782,31.118C6.184,31.411 6.66,31.585 7.157,31.621C7.653,31.658 8.149,31.554 8.59,31.323L16,27.427L16,-0.333Z" fill="#FFAD33"/>
</svg>
