<svg width="32" height="36" viewBox="0 0 32 36" fill="none" xmlns="http://www.w3.org/2000/svg" xmlns:xlink="http://www.w3.org/1999/xlink">
<path d="M14,34C14,35.105 14.895,36 16,36C17.105,36 18,35.105 18,34L14,34ZM18,2C18,0.895 17.105,0 16,0C14.895,0 14,0.895 14,2L18,2ZM0.586,14.586C-0.195,15.367 -0.195,16.633 0.586,17.414C1.367,18.195 2.633,18.195 3.414,17.414L0.586,14.586ZM16,2L17.414,0.586C16.633,-0.195 15.367,-0.195 14.586,0.586L16,2ZM28.586,17.414C29.367,18.195 30.633,18.195 31.414,17.414C32.195,16.633 32.195,15.367 31.414,14.586L28.586,17.414ZM18,34L18,2L14,2L14,34L18,34ZM3.414,17.414L17.414,3.414L14.586,0.586L0.586,14.586L3.414,17.414ZM14.586,3.414L28.586,17.414L31.414,14.586L17.414,0.586L14.586,3.414Z" fill="#000000"/>
</svg>
