<svg width="18" height="34" viewBox="0 0 18 34" fill="none" xmlns="http://www.w3.org/2000/svg" xmlns:xlink="http://www.w3.org/1999/xlink">
<g opacity="0.25">
<path d="M16.667,-0.328C16.169,-0.332 15.667,0 15.667,0C15.667,0 14.494,0.416 14.277,0.884L10.573,8.713L2.286,9.968C1.794,10.042 1.33,10.258 0.949,10.593C0.568,10.927 0.285,11.366 0.131,11.86C-0.023,12.354 -0.042,12.883 0.078,13.387C0.197,13.891 0.45,14.351 0.806,14.713L6.807,20.807L5.39,29.414C5.306,29.926 5.36,30.451 5.547,30.932C5.735,31.413 6.047,31.829 6.449,32.134C6.851,32.44 7.327,32.621 7.824,32.659C8.32,32.697 8.816,32.589 9.257,32.348L16.667,28.285L16.667,-0.328Z" transform="rotate(360 8.333 16.169)" fill="#000000"/>
</g>
</svg>
