<svg width="36" height="32" viewBox="0 0 36 32" fill="none" xmlns="http://www.w3.org/2000/svg" xmlns:xlink="http://www.w3.org/1999/xlink">
<path d="M1,14.5C0.172,14.5 -0.5,15.172 -0.5,16C-0.5,16.828 0.172,17.5 1,17.5L1,14.5ZM34,16L35.061,17.061C35.646,16.475 35.646,15.525 35.061,14.939L34,16ZM21.061,0.939C20.475,0.354 19.525,0.354 18.939,0.939C18.354,1.525 18.354,2.475 18.939,3.061L21.061,0.939ZM18.939,28.939C18.354,29.525 18.354,30.475 18.939,31.061C19.525,31.646 20.475,31.646 21.061,31.061L18.939,28.939ZM1,17.5L34,17.5L34,14.5L1,14.5L1,17.5ZM18.939,3.061L32.939,17.061L35.061,14.939L21.061,0.939L18.939,3.061ZM32.939,14.939L18.939,28.939L21.061,31.061L35.061,17.061L32.939,14.939Z" fill="#FAFAFA"/>
</svg>
